<svg width="261" height="199" viewBox="0 0 261 199" fill="none" xmlns="http://www.w3.org/2000/svg"><path d="M235.365 47.6787C235.125 47.3409 234.962 46.9088 234.888 46.497C234.623 45.0267 234.408 43.5477 234.178 42.0716C234.056 41.2915 233.981 40.5636 234.33 39.7603C238.028 31.2807 241.674 22.7779 245.336 14.2823C245.433 14.0576 245.512 13.827 245.644 13.4848C245.288 13.611 245.082 13.6733 244.885 13.756C237.743 16.7212 230.605 19.6923 223.461 22.6532C220.013 24.0829 216.621 25.688 213.088 26.8683C204.114 29.8655 195.073 32.6611 186.065 35.5611C185.551 35.7264 185.159 35.6597 184.713 35.4335C180.583 33.3426 176.448 31.2633 172.314 29.1825C172.067 29.0578 171.815 28.9476 171.51 28.8041C170.81 33.576 170.146 38.2523 169.422 42.9184C169.277 43.8522 169.392 44.8454 168.548 45.6458C165.709 48.3385 162.942 51.1094 160.145 53.847C160.016 53.9732 159.868 54.079 159.696 54.2226C159.659 54.0906 159.63 54.0268 159.626 53.963C159.42 51.3153 159.213 48.6691 159.019 46.0214C158.982 45.5342 158.807 45.1891 158.398 44.8788C156.245 43.2417 154.107 41.5858 151.996 39.8951C151.676 39.6385 151.402 39.1991 151.315 38.7975C150.809 36.4688 150.366 34.1256 149.898 31.7882C149.615 30.3744 149.327 28.9636 149.028 27.486C148.718 27.6426 148.483 27.7572 148.251 27.8775C146.09 28.9998 143.925 30.1149 141.774 31.2531C141.392 31.4547 141.123 31.4909 140.75 31.1937C138.785 29.6306 136.794 28.0994 134.811 26.5595C133.271 25.3632 131.731 24.1684 130.178 22.9635C126.656 25.6967 123.177 28.3792 119.728 31.0994C119.264 31.4648 118.946 31.4503 118.461 31.1922C116.122 29.9467 113.763 28.7403 111.358 27.4933C111.285 27.7731 111.212 27.9979 111.167 28.227C110.474 31.7244 109.777 35.2203 109.102 38.7206C109.001 39.2513 108.763 39.6225 108.332 39.9517C106.182 41.5916 104.043 43.2461 101.929 44.931C101.648 45.1557 101.401 45.5719 101.362 45.9242C101.198 47.3858 101.124 48.859 101.008 50.3264C100.907 51.6097 100.791 52.8929 100.676 54.2284C100.543 54.1443 100.476 54.1167 100.428 54.0689C97.4414 51.1442 94.4544 48.2225 91.479 45.2862C91.3238 45.134 91.2165 44.8846 91.1832 44.6671C90.7395 41.7598 90.3132 38.8511 89.8811 35.9424C89.5316 33.5876 89.1807 31.2314 88.8211 28.8142C88.5485 28.936 88.3281 29.0245 88.1164 29.1303C83.9172 31.2444 79.7166 33.3527 75.5275 35.4857C75.1027 35.7017 74.7416 35.7061 74.3066 35.5669C68.4385 33.6819 62.5645 31.8128 56.6964 29.9307C53.2352 28.82 49.7001 27.8891 46.3347 26.5363C36.8589 22.7271 27.4528 18.7411 18.0205 14.8261C16.9635 14.3867 15.9035 13.9532 14.6464 13.4341C14.8247 13.856 14.9219 14.0895 15.0219 14.3215C18.7107 22.8837 22.4039 31.4445 26.0724 40.0155C26.2478 40.4258 26.2855 40.9435 26.2319 41.393C26.0666 42.7806 25.8346 44.1596 25.6127 45.54C25.4735 46.4143 25.3372 47.2524 24.7746 48.0296C20.8843 53.4077 17.0418 58.822 13.1862 64.2247C13.0514 64.4146 12.931 64.6162 12.7527 64.8917C13.7039 65.0236 14.5565 65.1382 15.4076 65.26C20.4188 65.9763 25.43 66.6839 30.4383 67.4219C31.1329 67.5249 31.971 67.5829 32.4596 67.9961C34.0996 69.3823 35.6177 70.9121 37.1605 72.4085C37.3157 72.5578 37.4172 72.8696 37.3896 73.0856C37.0808 75.4274 36.7415 77.7648 36.4123 80.1051C36.1209 82.1757 35.8309 84.2463 35.5293 86.3879C39.2123 86.3879 42.8286 86.3879 46.4637 86.3879C46.5449 86.6431 46.6145 86.8461 46.674 87.052C48.1631 92.2111 49.6537 97.3688 51.1327 102.529C51.2545 102.953 51.4503 103.214 51.8751 103.404C56.0946 105.302 60.3011 107.226 64.5104 109.144C64.8932 109.318 65.2717 109.499 65.653 109.678C65.6487 109.749 65.6443 109.82 65.6385 109.891C59.7965 111.25 53.9559 112.608 47.9775 113.999C48.1979 114.363 48.3429 114.606 48.4923 114.849C51.3473 119.493 54.1821 124.152 57.0734 128.774C57.8549 130.026 58.5103 131.258 58.4335 132.791C58.403 133.411 58.535 134.039 58.5901 134.664C58.8612 137.741 59.1324 140.818 59.4021 143.895C59.6761 147.02 59.9139 150.149 60.2315 153.269C60.4852 155.763 60.8202 158.248 61.1508 160.734C61.6452 164.462 62.1687 168.187 62.6762 171.913C63.1837 175.64 63.6839 179.368 64.19 183.094C64.4336 184.882 64.6815 186.67 64.9367 188.513C65.2775 188.426 65.5573 188.369 65.827 188.282C83.6446 182.504 101.459 176.717 119.284 170.964C120.221 170.66 120.965 170.326 121.123 169.261C121.126 169.241 121.201 169.231 121.279 169.203C124.223 173.539 127.171 177.88 130.177 182.305C133.193 177.861 136.139 173.52 139.148 169.086C139.243 169.321 139.319 169.441 139.343 169.572C139.481 170.291 139.921 170.617 140.624 170.823C142.287 171.31 143.917 171.912 145.567 172.447C161.921 177.739 178.277 183.028 194.633 188.314C194.871 188.391 195.119 188.433 195.408 188.503C195.48 187.942 195.54 187.466 195.605 186.99C196.459 180.781 197.339 174.574 198.164 168.361C199.117 161.191 200.207 154.038 200.696 146.809C201.032 141.826 201.543 136.855 201.97 131.879C202.033 131.149 202.221 130.494 202.62 129.852C205.739 124.832 208.825 119.79 211.92 114.754C212.054 114.537 212.173 114.309 212.347 113.999C206.399 112.614 200.549 111.253 194.702 109.891C194.707 109.82 194.715 109.749 194.72 109.678C194.974 109.555 195.226 109.426 195.483 109.31C199.761 107.364 204.035 105.415 208.319 103.483C208.814 103.26 209.091 102.976 209.248 102.421C210.688 97.3238 212.18 92.2416 213.627 87.1463C213.784 86.5938 213.982 86.385 214.594 86.3937C217.735 86.4314 220.876 86.4111 224.018 86.4111C224.27 86.4111 224.524 86.4111 224.818 86.4111C224.186 81.9248 223.564 77.5589 222.974 73.1871C222.937 72.9174 223.075 72.5288 223.269 72.336C224.56 71.0658 225.913 69.8565 227.196 68.5776C227.82 67.9555 228.456 67.5263 229.378 67.5002C230.119 67.4799 230.856 67.2929 231.595 67.187C235.484 66.6302 239.375 66.0763 243.264 65.5181C244.679 65.3151 246.092 65.1063 247.603 64.8859C247.402 64.5872 247.274 64.3871 247.136 64.1957C243.206 58.69 239.276 53.1916 235.365 47.6787Z" fill="black"></path><path d="M201.389 198.012C201.341 198.012 201.292 198.012 201.244 198.012C201.002 197.912 200.765 197.796 200.517 197.715C181.064 191.43 161.61 185.15 142.161 178.853C141.594 178.669 141.286 178.718 140.93 179.25C137.556 184.282 134.148 189.29 130.749 194.306C130.591 194.538 130.42 194.76 130.21 195.048C130.01 194.774 129.85 194.571 129.705 194.358C126.302 189.347 122.887 184.343 119.518 179.308C119.12 178.715 118.795 178.673 118.176 178.873C100.563 184.585 82.9427 190.278 65.3238 195.978C63.2662 196.643 61.2159 197.333 59.1627 198.012C59.1149 198.012 59.0656 198.012 59.0177 198.012C58.8336 196.7 58.6422 195.387 58.4653 194.074C57.8664 189.63 57.2792 185.184 56.676 180.741C56.0713 176.298 55.4304 171.86 54.8461 167.414C54.2139 162.61 53.586 157.805 53.035 152.991C52.6899 149.971 52.4855 146.936 52.2245 143.905C51.962 140.851 51.659 137.801 51.4719 134.743C51.3936 133.455 50.9064 132.407 50.2496 131.345C45.8561 124.249 41.4945 117.131 37.1242 110.02C36.9806 109.787 36.8487 109.546 36.6819 109.256C39.5181 108.595 42.2514 107.958 45.0731 107.3C43.7492 102.701 42.4471 98.1765 41.1233 93.5771C36.5007 93.5771 31.9056 93.5771 27.283 93.5771C28.1298 87.6147 28.9636 81.7452 29.7872 75.8755C29.8176 75.6595 29.8147 75.368 29.6944 75.2172C29.2985 74.7199 28.8055 74.4096 28.1211 74.3183C24.2264 73.7992 20.339 73.2351 16.4486 72.6797C12.1769 72.0707 7.9067 71.4574 3.63645 70.8441C2.47935 70.6773 1.3237 70.5033 0.0563965 70.3163C0.305796 69.9552 0.478346 69.6986 0.656696 69.4477C6.4915 61.2755 12.3495 53.1193 18.1393 44.9166C18.9629 43.7494 19.2573 42.266 18.6657 40.8842C13.4776 28.7709 8.24745 16.6764 3.0347 4.57326C2.388 3.07106 1.779 1.55291 1.15115 0.043457C13.6327 5.22141 26.1129 10.4023 38.5945 15.5773C42.2427 17.0897 45.8271 18.7963 49.5623 20.0578C57.5895 22.7708 65.6921 25.2575 73.7729 27.8124C74.1151 27.9212 74.5951 27.8849 74.9156 27.7254C79.6222 25.388 84.313 23.0173 89.0066 20.6552C90.809 19.7475 92.6128 18.8413 94.4978 17.8944C95.5447 24.9965 96.58 32.0073 97.6356 39.1674C99.2683 37.8943 100.789 36.7169 102.294 35.5206C102.424 35.4177 102.487 35.1944 102.522 35.016C103.446 30.4108 104.362 25.8042 105.281 21.199C105.576 19.7229 105.873 18.2468 106.182 16.7083C106.482 16.8591 106.697 16.9621 106.908 17.0723C110.545 18.9616 114.183 20.8466 117.812 22.7505C118.22 22.9636 118.503 22.9897 118.895 22.6765C120.896 21.0815 122.926 19.5213 124.948 17.9524C126.698 16.5938 128.451 15.2366 130.203 13.8794C130.422 14.0403 130.598 14.1636 130.77 14.297C134.315 17.0534 137.867 19.8012 141.394 22.5808C141.863 22.9506 142.204 22.9651 142.72 22.6925C146.324 20.7915 149.944 18.9239 153.561 17.0476C153.765 16.9418 153.975 16.8475 154.215 16.733C154.284 17.0085 154.347 17.2158 154.389 17.4275C155.544 23.213 156.688 29.0014 157.867 34.7826C157.945 35.1639 158.199 35.5844 158.499 35.8324C159.727 36.8474 161.002 37.8044 162.265 38.7773C162.407 38.8861 162.575 38.9615 162.78 39.0804C163.824 31.9928 164.856 24.9907 165.897 17.9263C166.209 18.0684 166.45 18.1699 166.683 18.2859C172.928 21.4281 179.168 24.5775 185.424 27.695C185.783 27.8733 186.316 27.9139 186.7 27.7965C189.418 26.9685 192.123 26.0985 194.822 25.214C202.848 22.5808 210.955 20.2202 218.753 16.891C232.198 11.1519 245.747 5.64916 259.251 0.0478069C259.17 0.298657 259.109 0.556754 259.005 0.797454C253.284 14.0722 247.56 27.3441 241.837 40.6174C241.158 42.1892 241.423 43.7363 242.347 45.0428C248.141 53.244 253.996 61.4017 259.831 69.5739C259.989 69.7943 260.13 70.0263 260.331 70.3351C258.525 70.5947 256.859 70.8339 255.194 71.0717C251.305 71.6271 247.415 72.1839 243.526 72.7378C239.683 73.2859 235.841 73.8223 232 74.382C231.012 74.5256 230.537 75.1883 230.651 76.1656C230.693 76.5252 230.749 76.8819 230.799 77.24C231.362 81.1768 231.926 85.1135 232.487 89.0502C232.7 90.5466 232.906 92.0431 233.125 93.612C232.8 93.612 232.539 93.612 232.277 93.612C228.146 93.612 224.013 93.6221 219.882 93.5989C219.404 93.596 219.211 93.7541 219.086 94.192C217.893 98.3825 216.682 102.569 215.483 106.758C215.434 106.929 215.442 107.117 215.421 107.326C218.21 107.977 220.942 108.614 223.729 109.265C223.535 109.595 223.396 109.846 223.245 110.09C218.758 117.385 214.277 124.683 209.779 131.97C209.341 132.681 209.075 133.385 209.006 134.247C208.582 139.538 208.137 144.829 207.605 150.111C207.124 154.885 206.571 159.652 205.962 164.41C205.259 169.91 204.456 175.396 203.706 180.889C202.929 186.593 202.162 192.303 201.389 198.012ZM48.0093 113.999C48.2297 114.363 48.3747 114.607 48.5241 114.849C51.3791 119.493 54.2139 124.152 57.1052 128.774C57.8867 130.026 58.5421 131.258 58.4653 132.791C58.4348 133.412 58.5668 134.039 58.6219 134.664C58.893 137.741 59.1642 140.818 59.4339 143.895C59.7079 147.02 59.9457 150.149 60.2633 153.269C60.517 155.763 60.852 158.249 61.1826 160.734C61.677 164.462 62.2005 168.187 62.708 171.913C63.2155 175.64 63.7157 179.368 64.2218 183.094C64.4654 184.882 64.7133 186.67 64.9685 188.513C65.3093 188.426 65.5891 188.369 65.8588 188.282C83.6764 182.504 101.491 176.717 119.316 170.964C120.253 170.661 120.997 170.326 121.155 169.261C121.157 169.241 121.233 169.231 121.311 169.203C124.255 173.539 127.203 177.88 130.208 182.306C133.224 177.861 136.171 173.52 139.18 169.086C139.275 169.321 139.351 169.441 139.375 169.572C139.513 170.291 139.952 170.617 140.656 170.823C142.319 171.31 143.949 171.912 145.599 172.447C161.953 177.74 178.309 183.028 194.665 188.314C194.903 188.391 195.151 188.433 195.44 188.503C195.512 187.942 195.572 187.466 195.637 186.99C196.491 180.782 197.371 174.574 198.196 168.361C199.149 161.191 200.239 154.038 200.728 146.81C201.064 141.826 201.574 136.855 202.002 131.879C202.065 131.15 202.253 130.494 202.652 129.852C205.771 124.832 208.856 119.79 211.952 114.754C212.086 114.537 212.204 114.309 212.378 113.999C206.431 112.614 200.581 111.253 194.733 109.891C194.739 109.82 194.746 109.749 194.752 109.678C195.006 109.555 195.258 109.426 195.515 109.31C199.792 107.364 204.067 105.415 208.35 103.484C208.846 103.26 209.123 102.976 209.28 102.421C210.72 97.324 212.212 92.2417 213.659 87.1464C213.815 86.5939 214.014 86.3852 214.626 86.3939C217.767 86.4316 220.907 86.4113 224.049 86.4113C224.302 86.4113 224.556 86.4113 224.85 86.4113C224.218 81.925 223.596 77.559 223.006 73.1872C222.969 72.9175 223.107 72.529 223.301 72.3361C224.592 71.0659 225.945 69.8566 227.228 68.5777C227.851 67.9557 228.488 67.5265 229.41 67.5004C230.151 67.4801 230.888 67.293 231.627 67.1871C235.516 66.6303 239.406 66.0765 243.295 65.5182C244.711 65.3152 246.124 65.1064 247.635 64.886C247.434 64.5873 247.306 64.3872 247.168 64.1958C243.243 58.6931 239.312 53.1947 235.402 47.6832C235.161 47.3454 234.998 46.9133 234.924 46.5015C234.659 45.0312 234.445 43.5522 234.214 42.0761C234.092 41.296 234.017 40.5681 234.368 39.7648C238.065 31.2852 241.712 22.7824 245.373 14.2868C245.47 14.0621 245.55 13.8315 245.682 13.4893C245.325 13.6155 245.119 13.6778 244.922 13.7605C237.781 16.7257 230.643 19.6968 223.498 22.6577C220.05 24.0874 216.659 25.6925 213.125 26.8728C204.151 29.87 195.109 32.6656 186.103 35.5656C185.588 35.7309 185.197 35.6642 184.75 35.438C180.621 33.3471 176.485 31.2678 172.351 29.187C172.105 29.0623 171.852 28.9521 171.548 28.8086C170.848 33.5805 170.183 38.2568 169.46 42.9229C169.315 43.8567 169.429 44.8499 168.586 45.6503C165.746 48.343 162.98 51.1139 160.183 53.8515C160.054 53.9777 159.906 54.0835 159.733 54.2271C159.697 54.0951 159.668 54.0313 159.664 53.9675C159.458 51.3198 159.25 48.6735 159.056 46.0259C159.02 45.5387 158.844 45.1936 158.436 44.8833C156.282 43.2462 154.145 41.5903 152.034 39.8996C151.713 39.643 151.439 39.2036 151.352 38.802C150.846 36.4733 150.404 34.1301 149.936 31.7927C149.653 30.3789 149.364 28.9681 149.066 27.4905C148.755 27.6471 148.52 27.7617 148.288 27.882C146.128 29.0043 143.963 30.1194 141.811 31.2576C141.43 31.4592 141.16 31.4954 140.788 31.1982C138.823 29.6351 136.832 28.1039 134.848 26.564C133.309 25.3677 131.769 24.1729 130.216 22.968C126.694 25.7012 123.215 28.3837 119.765 31.1039C119.301 31.4693 118.984 31.4548 118.498 31.1967C116.159 29.9512 113.8 28.7448 111.396 27.4978C111.322 27.7776 111.25 28.0024 111.205 28.2315C110.512 31.7289 109.814 35.2248 109.14 38.7251C109.038 39.2558 108.801 39.627 108.37 39.9562C106.22 41.5961 104.081 43.2506 101.967 44.9355C101.685 45.1602 101.439 45.5764 101.4 45.9287C101.236 47.3903 101.162 48.8635 101.046 50.3309C100.944 51.6142 100.828 52.8974 100.714 54.2329C100.581 54.1488 100.514 54.1212 100.466 54.0733C97.479 51.1487 94.492 48.227 91.5166 45.2907C91.3614 45.1385 91.2541 44.8891 91.2208 44.6716C90.7771 41.7643 90.3508 38.8556 89.9187 35.9469C89.5692 33.5921 89.2183 31.2359 88.8587 28.8187C88.5861 28.9405 88.3657 29.029 88.154 29.1348C83.9548 31.2489 79.7542 33.3572 75.5651 35.4902C75.1403 35.7062 74.7792 35.7106 74.3442 35.5714C68.4761 33.6864 62.6021 31.8173 56.734 29.9352C53.2728 28.8245 49.7377 27.8936 46.3723 26.5408C36.8965 22.7316 27.4904 18.7456 18.0581 14.8306C17.0011 14.3912 15.9411 13.9577 14.684 13.4386C14.8623 13.8605 14.9595 14.094 15.0595 14.326C18.7483 22.8882 22.4415 31.449 26.11 40.02C26.2854 40.4303 26.3231 40.948 26.2695 41.3975C26.1042 42.7851 25.8722 44.1641 25.6503 45.5445C25.5111 46.4188 25.3748 47.2569 24.8122 48.0341C20.9219 53.4122 17.0794 58.8265 13.2238 64.2292C13.089 64.4191 12.9686 64.6207 12.7903 64.8961C13.7415 65.0281 14.5941 65.1427 15.4452 65.2645C20.4564 65.9808 25.4676 66.6884 30.4759 67.4264C31.1705 67.5294 32.0086 67.5874 32.4972 68.0006C34.1372 69.3868 35.6553 70.9166 37.1981 72.413C37.3533 72.5623 37.4548 72.8741 37.4272 73.0901C37.1198 75.4319 36.7791 77.7692 36.4499 80.1095C36.1585 82.1801 35.8685 84.2508 35.5669 86.3924C39.2499 86.3924 42.8662 86.3924 46.5013 86.3924C46.5825 86.6476 46.6521 86.8506 46.7116 87.0565C48.2007 92.2156 49.6913 97.3732 51.1703 102.534C51.2921 102.957 51.4879 103.218 51.9127 103.408C56.1322 105.306 60.3387 107.23 64.548 109.149C64.9308 109.323 65.3093 109.504 65.6907 109.682C65.6863 109.753 65.6819 109.824 65.6761 109.895C59.8283 111.248 53.9877 112.608 48.0093 113.999Z" fill="url(#paint0_linear_22_730)"></path><path d="M70.1117 182.192C69.9102 180.757 69.7144 179.413 69.5346 178.067C68.7966 172.534 68.0165 167.005 67.3451 161.465C66.8086 157.032 66.3707 152.586 65.956 148.139C65.4891 143.122 65.0962 138.098 64.6713 133.078C64.6148 132.409 64.4886 131.74 64.5118 131.075C64.5466 130.049 64.1261 129.225 63.6099 128.386C61.9859 125.742 60.4054 123.074 58.809 120.414C58.6828 120.205 58.5712 119.987 58.4001 119.678C59.6587 119.375 60.8535 119.087 62.0497 118.801C63.9043 118.357 65.7661 117.936 67.6119 117.457C68.0165 117.353 68.4297 117.11 68.7357 116.822C69.7115 115.903 70.6062 114.895 71.5965 113.994C72.2258 113.423 72.5419 112.768 72.6579 111.95C72.7797 111.097 72.9769 110.256 73.1553 109.331C74.6198 109.966 76.019 110.59 77.4342 111.174C77.8112 111.329 78.2404 111.435 78.6464 111.437C86.4967 111.451 94.347 111.438 102.197 111.464C102.893 111.467 103.064 111.254 103.082 110.59C103.115 109.354 103.265 108.12 103.372 106.794C103.053 106.775 102.795 106.747 102.535 106.746C93.5916 106.723 84.6494 106.708 75.7058 106.663C75.1113 106.66 74.4719 106.518 73.931 106.269C68.2514 103.66 62.592 101.011 56.9153 98.3968C56.4295 98.1735 56.2207 97.8632 56.0844 97.3731C54.3502 91.1671 52.5972 84.9669 50.8282 78.6913C48.1399 78.6913 45.4443 78.6913 42.6328 78.6913C42.7821 77.5559 42.9141 76.5119 43.0591 75.4679C43.3259 73.551 43.6217 71.6385 43.8508 69.7172C43.887 69.4084 43.7391 68.9719 43.5173 68.7544C40.5042 65.7964 37.4766 62.8515 34.4084 59.95C34.0778 59.6368 33.4847 59.5411 32.9946 59.4672C30.0526 59.022 27.1033 58.6131 24.0264 58.1723C24.1975 57.8983 24.3222 57.6779 24.4657 57.4705C26.1405 55.0679 27.7674 52.629 29.5161 50.28C30.4658 49.004 31.0096 47.6598 31.2068 46.0895C31.5345 43.4824 32.0014 40.8912 32.3726 38.2899C32.4248 37.9231 32.3378 37.4953 32.1928 37.1473C30.534 33.1642 28.852 29.1926 27.1772 25.2167C27.0946 25.021 27.0206 24.8238 26.8974 24.5106C27.2323 24.6367 27.4571 24.7136 27.676 24.8064C32.5625 26.8726 37.4084 29.0462 42.35 30.9747C45.9011 32.3609 49.5739 33.4324 53.2004 34.6243C60.1691 36.9139 67.1436 39.1831 74.1094 41.4799C74.598 41.6409 74.9794 41.6191 75.4347 41.3799C77.7329 40.1662 80.05 38.9874 82.4657 37.7418C82.7238 39.4659 82.9747 41.0957 83.211 42.7269C83.385 43.9304 83.5257 45.1397 83.7171 46.3403C83.7606 46.6144 83.8911 46.9247 84.0839 47.1175C91.3963 54.4545 98.7217 61.7799 106.046 69.1053C106.093 69.1532 106.165 69.1764 106.314 69.2634C106.415 68.057 106.517 66.9086 106.608 65.7587C107.072 59.8442 107.528 53.9282 108.016 48.0151C108.044 47.6758 108.277 47.2669 108.544 47.0494C110.584 45.3848 112.671 43.7796 114.702 42.1063C115.044 41.8236 115.314 41.3393 115.418 40.8999C115.771 39.4079 116.035 37.8941 116.354 36.2802C117.347 36.808 118.291 37.2778 119.2 37.8056C119.635 38.0594 119.921 38.013 120.312 37.6983C123.391 35.2246 126.498 32.7886 129.573 30.312C130.05 29.9278 130.34 29.9191 130.825 30.3106C133.897 32.7915 137.006 35.2246 140.083 37.6998C140.476 38.0159 140.759 38.0608 141.192 37.8071C142.088 37.2836 143.019 36.8196 144.033 36.2802C144.343 37.8216 144.662 39.2875 144.923 40.7636C145.032 41.3828 145.265 41.8352 145.783 42.2325C147.772 43.7593 149.709 45.3543 151.695 46.8884C152.195 47.2756 152.375 47.6975 152.421 48.3196C152.942 55.2013 153.495 62.0815 154.042 68.9618C154.048 69.0328 154.071 69.1024 154.106 69.2663C154.302 69.101 154.47 68.9777 154.613 68.8342C161.797 61.6494 168.981 54.4647 176.149 47.264C176.418 46.9928 176.613 46.5607 176.672 46.1765C177.1 43.4084 177.484 40.6331 177.896 37.7563C178.189 37.8999 178.405 38.0028 178.617 38.1116C180.755 39.2121 182.887 40.3286 185.042 41.3987C185.353 41.5539 185.816 41.609 186.141 41.5046C196.417 38.1652 206.71 34.8781 216.939 31.3966C220.638 30.138 224.176 28.4067 227.786 26.8886C229.635 26.1114 231.481 25.3255 233.447 24.4932C233.359 24.7687 233.318 24.9412 233.25 25.1022C231.665 28.8736 230.106 32.6567 228.468 36.4049C228.049 37.3648 227.957 38.2595 228.13 39.273C228.616 42.1339 229.02 45.0078 229.484 47.8715C229.541 48.221 229.716 48.5791 229.921 48.8749C231.897 51.7329 233.891 54.5792 235.879 57.4299C236.028 57.6445 236.163 57.8693 236.357 58.1709C234.346 58.4623 232.438 58.7364 230.531 59.0133C229.329 59.1888 228.12 59.3338 226.929 59.5672C226.504 59.6499 226.046 59.8717 225.734 60.1675C222.823 62.9443 219.95 65.7645 217.036 68.5384C216.562 68.9908 216.447 69.4098 216.544 70.0377C216.952 72.6854 217.307 75.3418 217.674 77.9953C217.701 78.1881 217.677 78.3897 217.677 78.6623C214.978 78.6623 212.28 78.6623 209.555 78.6623C208.626 81.9654 207.714 85.2061 206.802 88.4469C205.949 91.4759 205.111 94.5093 204.225 97.5297C204.131 97.8501 203.809 98.2039 203.5 98.3489C197.754 101.049 191.997 103.724 186.231 106.38C185.8 106.579 185.281 106.669 184.802 106.672C175.86 106.71 166.917 106.727 157.973 106.749C157.682 106.749 157.39 106.749 157.022 106.749C157.135 108.277 157.234 109.707 157.361 111.134C157.371 111.247 157.564 111.4 157.696 111.432C157.908 111.484 158.14 111.451 158.363 111.451C166.089 111.451 173.814 111.458 181.541 111.437C182.068 111.435 182.622 111.305 183.112 111.107C184.465 110.564 185.791 109.953 187.209 109.334C187.436 110.458 187.627 111.519 187.875 112.568C187.956 112.908 188.119 113.278 188.355 113.527C189.468 114.696 190.611 115.837 191.771 116.961C192.005 117.187 192.337 117.366 192.654 117.444C195.543 118.152 198.44 118.832 201.332 119.522C201.522 119.567 201.706 119.631 201.976 119.709C201.827 119.968 201.709 120.179 201.586 120.385C200.053 122.938 198.576 125.526 196.959 128.026C196.198 129.205 195.898 130.424 195.789 131.78C195.219 138.833 194.694 145.89 193.988 152.928C193.426 158.528 192.635 164.106 191.928 169.692C191.432 173.605 190.908 177.515 190.392 181.424C190.36 181.662 190.289 181.895 190.225 182.179C187.331 181.241 184.498 180.341 181.678 179.404C169.87 175.48 158.067 171.543 146.258 167.626C145.729 167.45 145.458 167.164 145.299 166.634C144.872 165.21 144.398 163.8 143.918 162.394C143.756 161.92 143.844 161.572 144.165 161.185C147.782 156.796 151.376 152.387 154.995 148.001C155.425 147.479 155.64 147.001 155.581 146.276C154.928 138.308 154.331 130.336 153.703 122.367C153.187 115.808 152.64 109.253 152.122 102.695C151.648 96.7061 151.203 90.7147 150.729 84.7262C150.258 78.7623 149.765 72.7999 149.286 66.8361C148.937 62.4817 148.596 58.1259 148.252 53.7716C148.239 53.6005 148.217 53.4294 148.19 53.1611C147.874 53.2525 147.6 53.3235 147.33 53.412C141.839 55.1969 136.349 56.9935 130.851 58.7538C130.44 58.8843 129.916 58.8785 129.504 58.7465C123.979 56.9848 118.465 55.1882 112.948 53.4033C112.695 53.3221 112.436 53.2583 112.099 53.164C112.021 54.0311 111.941 54.8373 111.879 55.645C111.412 61.7089 110.955 67.7742 110.483 73.8381C110.013 79.8527 109.521 85.8644 109.051 91.879C108.576 97.9676 108.122 104.058 107.646 110.146C107.18 116.136 106.689 122.123 106.221 128.113C105.735 134.325 105.25 140.538 104.816 146.753C104.787 147.159 105.136 147.653 105.426 148.01C108.796 152.151 112.15 156.307 115.603 160.378C116.478 161.411 116.642 162.313 116.136 163.506C115.711 164.507 115.391 165.555 115.083 166.6C114.92 167.154 114.637 167.454 114.077 167.64C101.488 171.807 88.9066 175.995 76.3221 180.174C74.308 180.842 72.278 181.489 70.1117 182.192ZM56.7645 49.2157C56.7065 49.4578 56.6688 49.5753 56.6499 49.6956C55.9612 54.1558 55.2666 58.616 54.6112 63.0806C54.5721 63.3474 54.7867 63.7331 55.0013 63.9419C59.6456 68.4644 64.303 72.9754 68.9735 77.4704C69.4752 77.9532 69.7898 78.4796 69.9769 79.1509C71.4849 84.5696 73.0277 89.9795 74.5371 95.3982C74.6691 95.8738 74.8866 96.1551 75.3375 96.3624C79.0336 98.0575 82.7122 99.7888 86.4126 101.474C86.9245 101.706 87.5262 101.739 88.1004 101.867C88.128 101.656 88.1497 101.603 88.1381 101.559C87.2058 98.2431 86.2633 94.9298 85.3469 91.6108C85.2352 91.2062 85.025 91.1221 84.6552 91.1265C83.488 91.141 82.3207 91.1323 81.1535 91.1323C80.6692 91.1323 80.1863 91.1323 79.747 91.1323C79.702 90.9916 79.6832 90.9655 79.689 90.9467C80.0007 89.7983 80.2066 88.6078 80.6518 87.5145C81.2854 85.9587 80.9664 84.9263 79.6832 83.7648C77.5807 81.8595 75.5753 79.8803 72.9508 78.6913C72.5028 78.4883 72.4274 78.2519 72.5883 77.7691C73.0016 76.525 73.4395 75.2722 73.6715 73.9875C74.1688 71.231 74.5531 68.4543 74.9562 65.6804C75.0098 65.3078 74.9794 64.8829 74.8561 64.5291C74.266 62.8457 73.628 61.1782 73.0103 59.5034C72.9233 59.2656 72.8566 59.022 72.7275 58.6117C80.3342 61.8727 87.8322 64.8612 95.8391 67.1014C93.3451 64.6118 91.0193 62.27 88.6645 59.9587C88.3266 59.6267 87.8786 59.3439 87.4291 59.196C78.194 56.1771 68.9517 53.18 59.7123 50.1785C58.7481 49.8653 57.7853 49.5492 56.7645 49.2157ZM187.472 58.6885C187.521 58.7335 187.57 58.7799 187.62 58.8248C187.134 60.1414 186.705 61.4827 186.146 62.7688C185.517 64.2188 185.304 65.6384 185.619 67.229C186.328 70.7946 186.48 74.4747 187.84 77.9039C188.023 78.365 187.771 78.5245 187.434 78.6855C185.055 79.8223 182.997 81.3897 181.219 83.3342C180.818 83.7735 180.41 84.2245 179.935 84.5754C179.24 85.0872 179.185 85.6339 179.445 86.4299C179.939 87.9481 180.3 89.5112 180.738 91.1323C179.055 91.1323 177.467 91.1569 175.882 91.1192C175.328 91.1062 175.099 91.2874 174.97 91.821C174.709 92.9042 174.371 93.9685 174.068 95.0415C173.445 97.2556 172.825 99.4727 172.145 101.896C172.853 101.739 173.455 101.709 173.964 101.477C177.664 99.7931 181.344 98.0618 185.039 96.3653C185.488 96.1594 185.709 95.881 185.842 95.404C187.356 89.9607 188.881 84.5203 190.446 79.0915C190.607 78.5318 190.955 77.9561 191.372 77.5487C196.008 73.0174 200.67 68.5123 205.343 64.0173C205.727 63.6475 205.849 63.3039 205.765 62.7848C205.271 59.7253 204.807 56.66 204.332 53.5976C204.111 52.1592 203.889 50.7208 203.661 49.2374C203.31 49.336 203.046 49.3998 202.788 49.4839C192.772 52.7435 182.756 56.0031 172.746 59.2787C172.389 59.3961 172.039 59.6368 171.768 59.9051C169.543 62.1047 167.336 64.3247 165.126 66.5403C164.981 66.6867 164.849 66.8462 164.637 67.0797C172.548 64.8568 180.048 61.8771 187.472 58.6885ZM177.668 52.4535C177.706 52.5115 177.744 52.5681 177.781 52.6261C189.264 48.5385 201.108 45.4848 212.365 40.3185C212.29 40.6462 212.268 40.7854 212.225 40.9188C211.188 44.1508 210.143 47.38 209.116 50.6149C208.999 50.9832 208.875 51.4037 208.939 51.7677C209.728 56.2554 210.06 60.8302 211.461 65.199C211.638 65.7486 211.461 65.9704 210.984 66.1256C209.895 66.4794 209.048 67.1754 208.239 67.9714C205.229 70.9323 202.189 73.8642 199.141 76.786C198.769 77.1441 198.672 77.4559 198.809 77.9474C199.41 80.092 199.975 82.2467 200.57 84.4637C200.314 84.4637 200.12 84.484 199.932 84.4608C198.209 84.2462 196.485 84.0418 194.768 83.7909C194.298 83.7228 194.11 83.8475 193.985 84.2941C192.627 89.1617 191.249 94.0265 189.883 98.8912C189.841 99.0406 189.85 99.203 189.83 99.4335C190.089 99.3175 190.267 99.2407 190.444 99.158C193.434 97.7689 196.418 96.3624 199.421 95.0023C199.975 94.7515 200.249 94.4165 200.41 93.8409C202.371 86.8243 204.348 79.8136 206.346 72.8072C206.468 72.3823 206.738 71.9488 207.056 71.6385C213.056 65.8022 219.069 59.979 225.096 54.1718C225.504 53.7803 225.62 53.4207 225.531 52.8726C224.792 48.2456 224.08 43.6143 223.361 38.983C223.137 37.549 222.919 36.1135 222.691 34.6272C222.411 34.7041 222.223 34.749 222.038 34.8099C210.16 38.6713 198.302 42.5921 186.392 46.3534C183.632 47.2248 181.244 48.4124 179.43 50.6932C178.918 51.3414 178.26 51.8721 177.668 52.4535ZM37.6984 34.6388C37.6201 35.1173 37.5476 35.5291 37.4838 35.9424C36.6182 41.5539 35.7627 47.1683 34.8724 52.7769C34.7767 53.3757 34.8651 53.7745 35.3175 54.2095C41.3466 60.0153 47.3598 65.8385 53.3599 71.6747C53.6615 71.9676 53.9123 72.3809 54.0283 72.784C56.0322 79.8136 58.01 86.8504 59.9922 93.8858C60.114 94.3165 60.2401 94.6804 60.7302 94.9037C63.8448 96.3189 66.9406 97.7747 70.045 99.2146C70.1944 99.2842 70.3539 99.3306 70.5105 99.3886C70.538 99.3045 70.5743 99.2523 70.5641 99.2146C69.1562 94.1802 67.7497 89.1458 66.3127 84.1201C66.2678 83.9649 65.9111 83.7837 65.7182 83.804C64.3871 83.9432 63.0618 84.1389 61.7336 84.3028C61.1159 84.3796 60.4953 84.4246 59.8037 84.4927C60.4098 82.2336 60.9709 80.1021 61.5582 77.9779C61.6887 77.5052 61.651 77.1804 61.2609 76.8063C58.2797 73.9585 55.3145 71.0933 52.3739 68.2034C51.4618 67.3059 50.5338 66.4663 49.2868 66.0777C48.8156 65.9298 48.7808 65.6717 48.9127 65.2309C49.2535 64.0927 49.6174 62.9515 49.8262 61.7843C50.325 59.0032 50.76 56.2105 51.1733 53.4149C51.3009 52.5492 51.514 51.5937 51.2835 50.7962C50.3569 47.5844 49.2694 44.4191 48.2457 41.2349C48.1674 40.9898 48.1094 40.7361 48.0152 40.3837C48.4154 40.5461 48.688 40.6549 48.9606 40.7665C51.9432 41.986 54.8751 43.3533 57.9187 44.3944C65.9821 47.1538 74.0949 49.771 82.1888 52.4448C82.3338 52.4927 82.486 52.5188 82.8253 52.6014C81.1433 50.9165 79.6063 49.3694 78.0548 47.8367C77.9055 47.6903 77.672 47.6105 77.4647 47.5438C64.4335 43.3011 51.4024 39.0642 38.3698 34.8273C38.1653 34.7563 37.9536 34.7084 37.6984 34.6388ZM103.753 101.761C104.072 97.8052 104.385 93.9743 104.69 90.1419C104.974 86.5546 105.257 82.9659 105.509 79.3757C105.529 79.0828 105.387 78.6942 105.184 78.4839C103.769 77.0194 102.325 75.5839 100.869 74.16C100.633 73.928 100.312 73.741 99.9962 73.638C94.653 71.8835 89.2865 70.1986 83.9679 68.3716C82.5353 67.8801 81.255 67.8134 79.9137 68.4528C79.892 68.463 79.8601 68.4659 79.8456 68.4818C79.6426 68.7196 79.3091 68.9357 79.2627 69.2025C78.9234 71.131 78.6508 73.0725 78.3347 75.0054C78.252 75.5129 78.3564 75.8739 78.7479 76.248C81.9046 79.2713 85.0453 82.3119 88.1671 85.37C88.4847 85.6803 88.7457 86.1182 88.8689 86.543C89.9216 90.1854 90.9482 93.8351 91.9487 97.4905C92.0894 98.0038 92.3475 98.2779 92.8158 98.4896C94.6472 99.3132 96.5235 100.064 98.2678 101.049C100.032 102.046 101.859 101.687 103.753 101.761ZM156.643 101.771C157.596 101.771 158.466 101.733 159.329 101.783C160.151 101.829 160.873 101.619 161.607 101.263C163.615 100.292 165.657 99.39 167.662 98.4127C167.966 98.2648 168.275 97.9052 168.37 97.5819C169.434 93.9192 170.446 90.2391 171.509 86.5749C171.639 86.1269 171.915 85.6672 172.248 85.341C175.351 82.2989 178.476 79.2785 181.612 76.2712C181.994 75.9058 182.143 75.5564 182.055 75.0373C181.766 73.3263 181.431 71.6167 181.269 69.8927C181.173 68.8777 180.747 68.3861 179.796 68.2266C179.158 68.1193 178.614 67.68 177.874 67.9236C172.039 69.8492 166.192 71.7356 160.351 73.6453C160.078 73.7337 159.794 73.8802 159.593 74.0774C158.086 75.5564 156.596 77.0499 155.117 78.5564C154.966 78.7101 154.845 78.9827 154.857 79.193C154.924 80.4066 155.035 81.6174 155.131 82.8296C155.514 87.6784 155.895 92.5272 156.279 97.376C156.393 98.8071 156.516 100.237 156.643 101.771ZM100.043 166.954C99.8512 166.789 99.7845 166.716 99.7033 166.663C93.6902 162.664 87.6785 158.663 81.6537 154.678C81.3869 154.502 81.0157 154.419 80.6895 154.407C79.7368 154.373 78.7827 154.394 77.775 154.394C77.9011 153.579 78.0157 152.896 78.1114 152.211C78.2709 151.059 78.5696 149.904 78.5377 148.757C78.4826 146.802 78.2056 144.853 78.0418 142.9C77.6706 138.473 77.2704 134.048 76.9688 129.617C76.8513 127.891 76.4221 126.311 75.5608 124.826C75.294 124.366 75.1026 123.865 74.8547 123.337C76.0567 123.038 77.1761 122.808 78.2622 122.47C78.7769 122.309 79.3076 122.027 79.6948 121.658C81.255 120.164 82.7586 118.61 84.2913 117.089C84.5291 116.852 84.8162 116.667 85.0815 116.458C85.0322 116.384 84.9815 116.309 84.9322 116.235C84.719 116.235 84.5073 116.235 84.2942 116.235C81.761 116.235 79.2279 116.216 76.6947 116.255C76.3264 116.261 75.874 116.448 75.6101 116.704C73.6555 118.613 71.7734 120.596 69.7927 122.475C68.9401 123.285 68.566 124.039 68.7168 125.294C69.2867 130.047 69.6869 134.821 70.1596 139.587C70.7367 145.414 71.3341 151.239 71.888 157.07C71.9445 157.664 72.1751 157.992 72.6478 158.301C77.9475 161.76 83.2676 165.187 88.5021 168.743C89.8375 169.651 90.9584 169.902 92.4954 169.326C94.9198 168.417 97.437 167.758 100.043 166.954ZM160.287 166.937C163.55 167.943 166.619 168.9 169.699 169.822C169.909 169.886 170.231 169.766 170.437 169.631C176.272 165.813 182.102 161.988 187.918 158.14C188.178 157.969 188.411 157.58 188.443 157.27C188.881 153.124 189.277 148.976 189.69 144.827C190.37 138.012 191.062 131.199 191.716 124.381C191.751 124.024 191.583 123.538 191.335 123.283C189.17 121.057 186.977 118.861 184.759 116.689C184.498 116.432 184.04 116.258 183.67 116.251C181.536 116.21 179.398 116.23 177.262 116.23C176.655 116.23 176.047 116.23 175.292 116.23C175.572 116.532 175.728 116.713 175.898 116.881C177.493 118.482 179.071 120.102 180.7 121.666C181.086 122.036 181.623 122.309 182.139 122.47C183.236 122.81 184.367 123.05 185.54 123.344C185.084 124.289 184.653 125.125 184.276 125.984C184.009 126.591 183.682 127.216 183.613 127.856C183.347 130.348 183.175 132.849 182.964 135.346C182.681 138.685 182.388 142.023 182.107 145.361C181.931 147.455 181.638 149.544 182.179 151.641C182.404 152.512 182.455 153.429 182.594 154.391C181.702 154.391 180.911 154.422 180.122 154.381C179.448 154.346 178.892 154.525 178.324 154.906C173.295 158.28 168.249 161.625 163.208 164.981C162.284 165.6 161.362 166.219 160.287 166.937ZM97.9517 121.329C97.9184 121.271 97.8836 121.213 97.8502 121.155C97.7052 121.147 97.5602 121.133 97.4152 121.133C94.1875 121.131 90.9584 121.118 87.7307 121.152C87.3856 121.155 86.9636 121.346 86.7113 121.588C85.2309 123.021 83.8171 124.524 82.3207 125.941C81.7204 126.509 81.529 127.081 81.6015 127.894C82.2294 134.988 82.8253 142.085 83.4111 149.183C83.4575 149.751 83.6533 150.114 84.1434 150.439C89.8984 154.241 95.6346 158.074 101.393 161.873C101.667 162.055 102.144 162.114 102.458 162.016C104.372 161.414 106.266 160.75 108.167 160.103C108.485 159.994 108.799 159.875 109.181 159.738C108.096 158.417 107.104 157.145 106.038 155.936C105.473 155.293 104.835 154.687 104.137 154.197C102.413 152.983 100.553 151.95 98.9029 150.647C97.1948 149.299 95.4026 148.734 93.2639 149.103C92.5838 149.221 91.8675 149.122 91.0744 149.122C91.8168 147.545 92.5374 146.079 93.1899 144.585C93.3784 144.154 93.477 143.632 93.4408 143.166C93.1914 139.851 92.8564 136.542 92.6346 133.224C92.5142 131.438 92.2286 129.753 91.1353 128.267C90.6553 127.614 90.3131 126.862 89.8491 126.053C90.9497 125.851 91.9661 125.677 92.9753 125.473C93.3538 125.396 93.8178 125.357 94.0744 125.117C95.3983 123.886 96.6656 122.597 97.9517 121.329ZM162.4 121.172C162.633 121.431 162.784 121.613 162.951 121.779C163.877 122.715 164.837 123.619 165.728 124.588C166.229 125.133 166.789 125.404 167.515 125.5C168.501 125.629 169.474 125.858 170.533 126.061C169.808 127.321 169.109 128.436 168.519 129.607C168.216 130.207 167.995 130.893 167.93 131.56C167.608 134.819 167.398 138.091 167.053 141.347C166.879 142.989 166.915 144.514 167.817 145.984C168.406 146.943 168.79 148.026 169.253 149.025C167.692 149.025 166.187 149 164.685 149.041C164.267 149.053 163.798 149.17 163.451 149.393C161.55 150.614 159.719 151.945 157.789 153.115C155.952 154.229 154.425 155.627 153.159 157.348C152.566 158.156 151.899 158.908 151.204 159.759C153.495 160.537 155.679 161.259 157.847 162.026C158.325 162.195 158.66 162.13 159.074 161.853C164.749 158.058 170.43 154.273 176.128 150.516C176.714 150.128 176.93 149.695 176.984 149.018C177.297 145.035 177.66 141.054 177.995 137.071C178.267 133.83 178.541 130.588 178.772 127.345C178.795 127.008 178.618 126.566 178.382 126.319C176.851 124.726 175.29 123.158 173.703 121.62C173.436 121.36 172.989 121.155 172.622 121.15C169.443 121.114 166.263 121.128 163.083 121.13C162.896 121.134 162.707 121.155 162.4 121.172ZM101.883 125.597C100.965 125.352 100.366 125.568 99.8338 126.187C99.2524 126.863 98.6347 127.53 97.9358 128.078C97.118 128.721 97.0368 129.488 97.1238 130.432C97.5399 134.931 97.9068 139.433 98.2983 143.934C98.3171 144.144 98.3302 144.439 98.4636 144.543C99.0146 144.971 99.6091 145.341 100.289 145.8C100.83 138.946 101.356 132.276 101.883 125.597ZM158.511 125.593C159.042 132.293 159.569 138.975 160.106 145.767C160.474 145.532 160.711 145.351 160.973 145.22C161.766 144.826 162.226 144.282 162.149 143.312C162.098 142.678 162.251 142.03 162.304 141.388C162.635 137.458 162.974 133.53 163.27 129.598C163.295 129.264 163.112 128.832 162.881 128.577C162.135 127.749 161.282 127.015 160.542 126.18C160.003 125.568 159.41 125.36 158.511 125.593Z" fill="url(#paint1_linear_22_730)"></path><path d="M130.19 172.216C128.982 170.401 127.842 168.664 126.676 166.944C125.563 165.301 124.407 163.686 123.302 162.039C123.127 161.778 123.047 161.405 123.047 161.083C123.034 152.811 123.031 144.539 123.047 136.266C123.048 135.73 122.905 135.349 122.523 134.961C118.827 131.21 115.156 127.435 111.463 123.679C111.14 123.35 111.022 123.047 111.058 122.571C111.499 116.729 111.907 110.884 112.33 105.039C112.797 98.6013 113.272 92.1633 113.742 85.7253C113.823 84.6102 113.91 83.4966 113.954 82.3801C113.973 81.9103 114.122 81.7218 114.614 81.7334C115.781 81.761 116.95 81.7218 118.115 81.7566C118.378 81.7639 118.7 81.8987 118.885 82.0829C120.482 83.6837 122.065 85.2961 123.614 86.9418C123.795 87.1332 123.843 87.5697 123.779 87.8539C122.035 95.5664 120.269 103.273 118.506 110.981C118.097 112.769 117.663 114.553 117.289 116.348C117.231 116.629 117.425 116.966 117.517 117.273C117.535 117.337 117.612 117.386 117.669 117.434C120.27 119.654 122.023 122.435 123.378 125.561C124.825 128.903 126.517 132.14 128.077 135.434C128.289 135.882 128.526 136.074 129.03 136.043C129.747 135.998 130.474 135.987 131.189 136.046C131.828 136.098 132.149 135.872 132.426 135.285C134.521 130.843 136.642 126.414 138.794 122C139.123 121.326 139.606 120.704 140.109 120.141C140.97 119.18 141.888 118.268 142.818 117.37C143.173 117.026 143.221 116.697 143.116 116.243C140.978 106.943 138.865 97.637 136.697 88.344C136.501 87.5059 136.642 86.9897 137.245 86.4082C138.675 85.0293 140.025 83.5677 141.434 82.167C141.653 81.9495 142.016 81.7711 142.319 81.7595C143.485 81.7131 144.653 81.7552 145.821 81.7334C146.266 81.7247 146.406 81.8799 146.438 82.3294C147.085 91.6181 147.743 100.905 148.41 110.193C148.715 114.427 149.054 118.658 149.341 122.893C149.362 123.202 149.167 123.607 148.942 123.84C145.259 127.639 141.559 131.422 137.847 135.192C137.489 135.556 137.338 135.914 137.34 136.429C137.356 144.627 137.353 152.825 137.341 161.022C137.341 161.35 137.299 161.737 137.126 161.994C134.97 165.208 132.787 168.406 130.61 171.607C130.497 171.774 130.384 171.936 130.19 172.216Z" fill="url(#paint2_linear_22_730)"></path><path d="M130.202 129.746C130.024 129.402 129.883 129.153 129.762 128.893C128.244 125.69 126.78 122.458 125.178 119.297C124.723 118.398 123.952 117.602 123.171 116.94C122.096 116.027 121.91 115.117 122.241 113.728C124.382 104.709 126.406 95.6622 128.486 86.6287C128.609 86.0937 128.558 85.7283 128.143 85.3165C126.417 83.604 124.733 81.8466 122.971 80.0428C123.733 79.3338 124.556 78.7161 125.19 77.9447C126.62 76.2061 128.368 75.6856 130.601 75.8016C132.231 75.8871 133.543 76.1293 134.645 77.4183C135.446 78.3536 136.448 79.1163 137.412 80.0037C137.231 80.2096 137.081 80.3952 136.916 80.5648C135.338 82.183 133.742 83.7853 132.195 85.431C131.974 85.6659 131.835 86.1488 131.905 86.4605C134.036 95.8884 136.194 105.312 138.369 114.73C138.507 115.327 138.437 115.74 137.95 116.148C136.163 117.641 134.973 119.544 134.055 121.677C132.986 124.159 131.757 126.572 130.595 129.012C130.491 129.23 130.369 129.436 130.202 129.746Z" fill="url(#paint3_linear_22_730)"></path><path d="M144.655 62.2786C145.098 67.3014 145.536 72.2822 145.983 77.3412C144.294 77.3412 142.661 77.3528 141.03 77.3282C140.806 77.3253 140.583 77.144 140.367 77.0309C138.353 75.9782 136.773 74.4006 135.253 72.7607C134.814 72.2865 134.35 72.1024 133.701 72.1125C131.268 72.1488 128.834 72.1096 126.401 72.1459C126.056 72.1517 125.626 72.33 125.383 72.5751C123.736 74.2281 122.155 75.9536 120.034 77.0295C119.718 77.1904 119.348 77.3253 119.001 77.334C117.492 77.3673 115.982 77.3485 114.367 77.3485C114.86 72.2981 115.344 67.3275 115.839 62.2598C117.862 62.789 119.792 63.2907 121.722 63.7982C124.358 64.4913 126.988 65.1989 129.63 65.8703C129.992 65.9631 130.419 65.9631 130.781 65.8703C135.124 64.7552 139.461 63.6141 143.799 62.4816C144.057 62.412 144.32 62.3569 144.655 62.2786Z" fill="url(#paint4_linear_22_730)"></path><path d="M118.729 156.22C117.569 154.744 116.549 153.447 115.533 152.15C113.638 149.727 111.737 147.307 109.86 144.869C109.668 144.618 109.499 144.249 109.521 143.948C109.846 139.172 110.204 134.399 110.558 129.625C110.57 129.463 110.626 129.302 110.517 129.338C112.36 131.069 114.219 132.783 116.039 134.539C116.965 135.433 118.154 136.263 118.611 137.374C119.058 138.459 118.727 139.865 118.729 141.131C118.732 145.822 118.73 150.513 118.73 155.205C118.729 155.464 118.729 155.727 118.729 156.22Z" fill="url(#paint5_linear_22_730)"></path><path d="M141.665 156.176C141.665 154.394 141.665 152.808 141.665 151.222C141.665 146.875 141.653 142.528 141.685 138.181C141.688 137.792 141.887 137.313 142.156 137.031C144.456 134.624 146.796 132.257 149.111 129.865C149.292 129.678 149.375 129.394 149.502 129.154C149.602 129.23 149.701 129.305 149.801 129.381C149.868 130.161 149.942 130.941 150 131.722C150.292 135.658 150.574 139.594 150.877 143.53C150.92 144.099 150.822 144.559 150.449 145.029C147.69 148.513 144.962 152.022 142.222 155.523C142.088 155.697 141.939 155.857 141.665 156.176Z" fill="url(#paint6_linear_22_730)"></path><defs><linearGradient id="paint0_linear_22_730" x1="0.0569475" y1="99.0271" x2="260.332" y2="99.0271" gradientUnits="userSpaceOnUse"><stop stop-color="#F36F42"></stop><stop offset="0.4944" stop-color="#EC2127"></stop><stop offset="1" stop-color="#F36F42"></stop></linearGradient><linearGradient id="paint1_linear_22_730" x1="24.027" y1="103.34" x2="236.362" y2="103.34" gradientUnits="userSpaceOnUse"><stop stop-color="#FABAA9"></stop><stop offset="1" stop-color="#F2643B"></stop></linearGradient><linearGradient id="paint2_linear_22_730" x1="111.051" y1="126.976" x2="149.341" y2="126.976" gradientUnits="userSpaceOnUse"><stop stop-color="#FABAA9"></stop><stop offset="1" stop-color="#F2643B"></stop></linearGradient><linearGradient id="paint3_linear_22_730" x1="122.093" y1="102.767" x2="138.43" y2="102.767" gradientUnits="userSpaceOnUse"><stop stop-color="#FABAA9"></stop><stop offset="1" stop-color="#F2643B"></stop></linearGradient><linearGradient id="paint4_linear_22_730" x1="114.366" y1="69.8051" x2="145.983" y2="69.8051" gradientUnits="userSpaceOnUse"><stop stop-color="#FABAA9"></stop><stop offset="1" stop-color="#F2643B"></stop></linearGradient><linearGradient id="paint5_linear_22_730" x1="109.518" y1="142.776" x2="118.844" y2="142.776" gradientUnits="userSpaceOnUse"><stop stop-color="#FABAA9"></stop><stop offset="1" stop-color="#F2643B"></stop></linearGradient><linearGradient id="paint6_linear_22_730" x1="141.663" y1="142.666" x2="150.887" y2="142.666" gradientUnits="userSpaceOnUse"><stop stop-color="#FABAA9"></stop><stop offset="1" stop-color="#F2643B"></stop></linearGradient></defs></svg>
