<svg width="169" height="169" viewBox="0 0 169 169" fill="none" xmlns="http://www.w3.org/2000/svg" digit="0" colorBorderStart="#F595CE" colorBorderEnd="#F5CBDF" colorRectStart="#DE4A8B" colorRectMiddle="#6650A1" colorRectEnd="#EE5592"><path d="M22.6301 99.1956C23.3974 99.9583 24.1624 100.723 24.9285 101.487L22.36 98.7949C22.4111 98.9323 22.4962 99.0617 22.6301 99.1956Z" fill="#0F0F10"></path><path d="M35.476 112.024C35.8335 112.383 36.2058 112.623 36.7188 112.723C37.7721 112.928 38.8163 113.189 39.8514 113.474C40.1953 113.569 40.5619 113.745 40.8105 113.993C48.9291 122.081 57.0376 130.18 65.1313 138.293C65.415 138.578 65.6171 138.999 65.7249 139.392C66.0302 140.498 66.2526 141.629 66.5398 142.741C66.6068 142.999 66.76 143.265 66.9473 143.454C70.0685 146.592 73.2045 149.716 76.3258 152.854C76.5811 153.111 76.7923 153.189 77.1543 153.082C84.1278 151.017 91.1069 148.971 98.0792 146.905C98.3868 146.815 98.6978 146.62 98.927 146.392C103.378 141.965 107.821 137.528 112.251 133.079C112.487 132.842 112.673 132.501 112.76 132.176C113.04 131.14 113.238 130.082 113.519 129.046C113.612 128.704 113.798 128.342 114.046 128.094C121.968 120.156 129.907 112.236 137.82 104.289C138.5 103.607 139.199 103.127 140.165 102.988C140.946 102.875 141.719 102.674 142.476 102.448C142.835 102.342 143.211 102.147 143.475 101.886C146.58 98.8131 149.666 95.7214 152.757 92.6341C152.901 92.4911 153.037 92.3402 153.309 92.0553C153.109 91.927 152.904 91.8419 152.759 91.6966C150.29 89.2439 147.826 86.7878 145.376 84.3169C145.215 84.1546 145.072 83.8617 145.094 83.6495C145.552 79.4273 146.03 75.2074 146.519 70.9886C146.572 70.5334 146.445 70.2224 146.118 69.8978C141.72 65.5247 137.332 61.1402 132.954 56.7454C132.578 56.3675 132.177 56.1394 131.656 56.0361C130.751 55.8556 129.855 55.6286 128.963 55.3914C128.721 55.3278 128.462 55.203 128.288 55.0305C120.068 46.8312 111.854 38.6229 103.647 30.4089C103.474 30.2352 103.344 29.9799 103.283 29.7393C103.033 28.7734 102.837 27.7927 102.578 26.828C102.495 26.5181 102.34 26.1833 102.118 25.9597C98.8657 22.6852 95.5935 19.4323 92.3406 16.1601C92.0739 15.8923 91.8526 15.8457 91.5019 15.9513C84.609 18.0226 77.7127 20.0804 70.8199 22.1506C70.5781 22.2233 70.325 22.3549 70.148 22.5309C65.6046 27.0538 61.0691 31.5848 56.5427 36.1248C56.3702 36.2984 56.2476 36.5583 56.1852 36.8001C55.9207 37.8216 55.7108 38.8567 55.4293 39.8725C55.3339 40.2142 55.1467 40.5751 54.8981 40.8248C46.7885 48.9491 38.6676 57.0621 30.5365 65.1649C30.2868 65.4134 29.9281 65.6064 29.5853 65.6995C28.5854 65.9707 27.5639 66.1591 26.5617 66.4225C26.27 66.4996 25.967 66.671 25.7536 66.8833C22.5052 70.1067 19.2693 73.3437 16.0323 76.5773C15.8995 76.709 15.7747 76.8486 15.6146 77.0154C15.7735 77.1823 15.912 77.3321 16.0561 77.4762C18.4623 79.8836 20.8595 82.3 23.2884 84.6857C23.6743 85.0648 23.7651 85.4292 23.7015 85.9331C23.5029 87.5062 23.3394 89.0827 23.1635 90.6592C22.8843 93.1733 22.6187 95.6884 22.3157 98.2002C22.2873 98.4317 22.2964 98.6201 22.3599 98.7938L24.9284 101.486C28.4503 104.993 31.9666 108.506 35.476 112.024Z" fill="#0F0F10"></path><path d="M84.5397 168.29C56.5415 140.258 28.6546 112.337 0.803955 84.4533C28.6523 56.5856 56.5552 28.6623 84.6396 0.558594C84.7474 0.751544 84.8212 0.987625 84.9755 1.14199C98.347 14.5146 111.723 27.8815 125.101 41.2461C139.322 55.454 153.544 69.6597 167.766 83.8653C168.34 84.4385 168.34 84.4385 167.77 85.0083C153.621 99.1526 139.471 113.298 125.321 127.443C120.546 132.215 115.772 136.987 110.994 141.756C102.309 150.427 93.622 159.095 84.9381 167.768C84.8042 167.902 84.7066 168.07 84.5397 168.29ZM15.6157 77.0167C15.7746 77.1836 15.9131 77.3334 16.0572 77.4775C18.4634 79.8849 20.8605 82.3013 23.2894 84.6871C23.6753 85.0662 23.7661 85.4305 23.7026 85.9344C23.504 87.5075 23.3405 89.0841 23.1646 90.6606C22.8854 93.1746 22.6198 95.6898 22.3167 98.2015C22.2668 98.6169 22.3258 98.8927 22.6311 99.1969C26.9226 103.463 31.2027 107.741 35.4771 112.026C35.8346 112.384 36.2069 112.624 36.7199 112.724C37.7732 112.929 38.8174 113.19 39.8525 113.475C40.1964 113.571 40.563 113.746 40.8116 113.994C48.9302 122.082 57.0387 130.181 65.1323 138.294C65.4161 138.579 65.6181 139 65.726 139.393C66.0313 140.5 66.2537 141.63 66.5409 142.742C66.6079 143 66.7611 143.267 66.9483 143.455C70.0696 146.593 73.2056 149.717 76.3269 152.855C76.5822 153.113 76.7933 153.19 77.1554 153.083C84.1288 151.019 91.108 148.972 98.0803 146.907C98.3878 146.816 98.6988 146.621 98.9281 146.394C103.38 141.966 107.822 137.529 112.252 133.08C112.488 132.843 112.674 132.502 112.761 132.178C113.041 131.141 113.239 130.084 113.52 129.047C113.613 128.706 113.799 128.344 114.047 128.095C121.969 120.157 129.908 112.237 137.821 104.291C138.501 103.609 139.2 103.129 140.166 102.989C140.947 102.877 141.72 102.676 142.477 102.45C142.836 102.343 143.212 102.148 143.476 101.887C146.581 98.8144 149.667 95.7227 152.758 92.6355C152.902 92.4925 153.038 92.3415 153.31 92.0566C153.11 91.9284 152.905 91.8432 152.76 91.698C150.291 89.2452 147.827 86.7891 145.377 84.3182C145.216 84.1559 145.073 83.8631 145.095 83.6508C145.553 79.4286 146.031 75.2087 146.52 70.9899C146.573 70.5348 146.446 70.2238 146.119 69.8991C141.721 65.526 137.333 61.1415 132.955 56.7468C132.579 56.3688 132.178 56.1407 131.657 56.0374C130.752 55.8569 129.856 55.6299 128.964 55.3927C128.722 55.3292 128.463 55.2043 128.289 55.0318C120.069 46.8325 111.855 38.6242 103.649 30.4102C103.475 30.2366 103.346 29.9812 103.284 29.7406C103.035 28.7747 102.838 27.7941 102.579 26.8293C102.497 26.5195 102.341 26.1846 102.119 25.961C98.8668 22.6866 95.5946 19.4336 92.3417 16.1614C92.075 15.8936 91.8536 15.847 91.5029 15.9526C84.6101 18.024 77.7138 20.0817 70.821 22.152C70.5792 22.2246 70.3261 22.3563 70.149 22.5322C65.6056 27.0552 61.0702 31.5861 56.5438 36.1261C56.3713 36.2997 56.2487 36.5597 56.1863 36.8014C55.9218 37.8229 55.7118 38.858 55.4304 39.8739C55.335 40.2155 55.1478 40.5764 54.8992 40.8261C46.7896 48.9505 38.6687 57.0634 30.5375 65.1662C30.2878 65.4148 29.9292 65.6077 29.5864 65.7008C28.5865 65.972 27.565 66.1605 26.5628 66.4238C26.2711 66.501 25.968 66.6723 25.7547 66.8846C22.5063 70.108 19.2704 73.345 16.0334 76.5786C15.9006 76.7103 15.7746 76.8499 15.6157 77.0167Z" fill="url(#paint0_linear_22_807)"></path><path d="M70.2205 52.4473C79.7159 52.4473 89.2102 52.4473 98.7056 52.4473C98.7793 53.4835 98.8542 54.5186 98.928 55.5549C99.0926 57.8533 99.2504 60.1528 99.4217 62.4512C99.6294 65.258 99.853 68.0637 100.061 70.8706C100.27 73.6967 100.46 76.524 100.669 79.349C100.877 82.1559 101.089 84.9628 101.317 87.7673C101.351 88.1873 101.207 88.4642 100.917 88.7525C97.658 91.9918 94.4164 95.247 91.1567 98.4851C90.8638 98.7757 90.7503 99.0617 90.7503 99.4715C90.7628 106.562 90.7628 113.652 90.7458 120.741C90.7447 121.049 90.6255 121.412 90.4382 121.654C89.3407 123.074 88.2011 124.462 87.0866 125.868C86.2228 126.96 85.3738 128.063 84.5192 129.162C84.4817 129.162 84.4431 129.162 84.4057 129.162C84.3387 129.053 84.2842 128.935 84.2048 128.835C82.3298 126.488 80.4582 124.138 78.5707 121.801C78.2824 121.445 78.153 121.093 78.1541 120.627C78.1689 113.499 78.1609 106.371 78.1734 99.2433C78.1745 98.8517 78.0588 98.5816 77.783 98.3069C74.5789 95.121 71.3975 91.9112 68.1786 88.74C67.7064 88.2758 67.5816 87.8309 67.6383 87.1987C67.8483 84.8663 68.0061 82.5293 68.1797 80.1935C68.3454 77.9519 68.5043 75.7091 68.6701 73.4675C68.8834 70.5857 69.1002 67.7039 69.317 64.8222C69.4895 62.5238 69.67 60.2266 69.838 57.9282C69.9708 56.102 70.0933 54.2746 70.2205 52.4473Z" fill="url(#paint1_linear_22_807)"></path><path d="M67.2366 93.0986C68.9811 94.8443 70.6121 96.4719 72.2374 98.104C72.957 98.827 73.9365 99.4456 74.3043 100.32C74.6629 101.173 74.3973 102.29 74.3973 103.292C74.3996 107.451 74.3985 111.609 74.3985 115.768C74.3985 115.967 74.3985 116.165 74.3985 116.364C74.3576 116.379 74.3167 116.393 74.2747 116.408C73.7606 115.769 73.2453 115.13 72.7323 114.489C70.6552 111.893 68.5748 109.3 66.5113 106.694C66.3638 106.508 66.2537 106.22 66.2696 105.99C66.4603 103.24 66.6805 100.491 66.8882 97.7419C66.9835 96.4798 67.0686 95.2177 67.1606 93.9556C67.1776 93.7149 67.2026 93.4755 67.2366 93.0986Z" fill="url(#paint2_linear_22_807)"></path><path d="M94.5277 116.519C94.5277 116.201 94.5277 116.057 94.5277 115.912C94.5277 110.923 94.5243 105.935 94.539 100.947C94.5402 100.695 94.64 100.376 94.8103 100.203C97.0122 97.9697 99.2345 95.7564 101.453 93.5398C101.505 93.4887 101.567 93.4478 101.702 93.3389C101.754 93.92 101.805 94.4296 101.844 94.9404C102.01 97.1434 102.17 99.3453 102.333 101.548C102.434 102.904 102.525 104.26 102.646 105.614C102.688 106.083 102.635 106.465 102.315 106.859C99.8315 109.927 97.3743 113.014 94.9079 116.096C94.8273 116.195 94.7365 116.287 94.5277 116.519Z" fill="url(#paint3_linear_22_807)"></path><defs><linearGradient id="paint0_linear_22_807" x1="0.803626" y1="84.4241" x2="168.196" y2="84.4241" gradientUnits="userSpaceOnUse"><stop stop-color="#95EF35"></stop><stop offset="0.4944" stop-color="#04D733"></stop><stop offset="1" stop-color="#95ED36"></stop></linearGradient><linearGradient id="paint1_linear_22_807" x1="67.6248" y1="90.8053" x2="101.321" y2="90.8053" gradientUnits="userSpaceOnUse"><stop stop-color="#DDFFB5"></stop><stop offset="1" stop-color="#5ED62E"></stop></linearGradient><linearGradient id="paint2_linear_22_807" x1="66.2677" y1="104.752" x2="74.4917" y2="104.752" gradientUnits="userSpaceOnUse"><stop stop-color="#DDFFB5"></stop><stop offset="1" stop-color="#5ED62E"></stop></linearGradient><linearGradient id="paint3_linear_22_807" x1="94.5269" y1="104.929" x2="102.659" y2="104.929" gradientUnits="userSpaceOnUse"><stop stop-color="#DDFFB5"></stop><stop offset="1" stop-color="#5ED62E"></stop></linearGradient></defs></svg>
