<svg width="232" height="182" viewBox="0 0 232 182" fill="none" xmlns="http://www.w3.org/2000/svg"><path d="M218.534 18.9005C218.087 16.0715 217.639 13.2411 217.182 10.3542C216.908 10.4223 216.678 10.4644 216.456 10.5354C198.338 16.3064 180.22 22.0774 162.109 27.8644C161.694 27.9978 161.276 28.2544 160.963 28.5604C152.853 36.4745 144.756 44.4016 136.657 52.3259C136.473 52.5071 136.278 52.6782 136.064 52.8783C129.354 46.8072 122.676 40.765 115.968 34.6953C109.239 40.7723 102.54 46.8217 95.8348 52.8769C95.6623 52.7145 95.5376 52.6013 95.4172 52.4839C87.3001 44.5422 79.1874 36.5963 71.0572 28.6691C70.7136 28.3342 70.2452 28.0659 69.7856 27.9195C52.184 22.2717 34.5781 16.6428 16.9722 11.0124C16.2472 10.7804 15.5179 10.5615 14.7378 10.3208C14.1317 14.1445 13.5372 17.8768 12.9485 21.6105C12.2496 26.0374 11.5608 30.4671 10.8605 34.8939C10.1645 39.2976 9.44963 43.6983 8.77973 48.1049C8.73623 48.3905 8.92038 48.8111 9.14078 49.0213C15.8615 55.4172 22.6026 61.7915 29.3219 68.1889C29.6481 68.4991 29.899 68.9603 30.0266 69.3982C32.1189 76.5844 34.2214 83.7691 36.2239 90.9814C36.5632 92.2038 37.1461 92.849 38.2858 93.3463C42.5908 95.2212 46.848 97.2077 51.359 99.2594C51.0197 99.503 50.8007 99.6205 50.6296 99.7872C48.1066 102.254 45.5822 104.716 43.0882 107.21C42.8417 107.456 42.6575 107.916 42.6836 108.258C42.9069 111.363 43.1795 114.464 43.4449 117.567C43.7131 120.693 43.993 123.818 44.2641 126.943C44.5251 129.949 44.7803 132.955 45.0399 135.96C45.3603 139.662 45.6953 143.364 45.994 147.069C46.036 147.597 46.1897 147.943 46.6508 148.242C57.2721 155.14 67.8861 162.05 78.4928 168.973C78.9235 169.254 79.2845 169.286 79.7616 169.126C88.073 166.354 96.3844 163.58 104.713 160.86C105.866 160.483 106.787 160.054 106.929 158.717C106.935 158.659 107.01 158.608 107.11 158.483C110.059 162.171 112.987 165.833 115.951 169.538C118.93 165.81 121.859 162.149 124.864 158.39C125.049 158.933 125.139 159.365 125.344 159.733C125.499 160.012 125.763 160.328 126.046 160.423C134.764 163.342 143.493 166.232 152.217 169.142C152.682 169.297 153.02 169.229 153.416 168.968C155.953 167.295 158.504 165.642 161.051 163.985C169.119 158.734 177.189 153.487 185.245 148.219C185.527 148.035 185.799 147.674 185.864 147.352C186.003 146.67 185.999 145.961 186.058 145.264C186.315 142.233 186.571 139.204 186.832 136.174C187.104 133.024 187.381 129.875 187.655 126.725C187.916 123.72 188.177 120.715 188.436 117.709C188.709 114.56 188.996 111.41 189.231 108.258C189.257 107.915 189.071 107.455 188.825 107.208C186.331 104.714 183.806 102.249 181.28 99.7887C181.093 99.6075 180.818 99.5175 180.583 99.3841C180.957 99.0796 181.13 98.997 181.305 98.9173C185.732 96.8974 190.157 94.8747 194.59 92.8679C195.019 92.6736 195.25 92.4198 195.386 91.9471C197.533 84.426 199.7 76.9091 201.886 69.3982C202.014 68.9617 202.262 68.4991 202.588 68.1889C209.254 61.8407 215.935 55.5086 222.633 49.1938C223.101 48.753 223.246 48.363 223.093 47.7468C222.913 47.0247 222.855 46.2736 222.739 45.5355C222.041 41.1072 221.342 36.6804 220.644 32.2521C219.94 27.802 219.237 23.352 218.534 18.9005Z" fill="#0F0F10"></path><path d="M222.885 0.811523C222.933 0.811523 222.982 0.811523 223.03 0.811523C223.251 2.21512 223.47 3.61872 223.69 5.02232C224.435 9.75947 225.181 14.4952 225.927 19.2323C226.625 23.6592 227.319 28.0875 228.017 32.5143C228.771 37.2979 229.522 42.0829 230.285 46.865C230.504 48.2381 230.763 49.604 231.004 50.9728C231.004 51.07 231.004 51.1657 231.004 51.2628C230.965 51.2889 230.918 51.3092 230.885 51.3411C223.555 58.2866 216.224 65.2307 208.906 72.1878C208.661 72.4198 208.474 72.7663 208.378 73.094C206.055 81.0908 203.744 89.0904 201.45 97.0944C201.312 97.5729 201.101 97.8716 200.637 98.079C198.636 98.9722 196.65 99.9031 194.66 100.818C194.251 101.007 193.839 101.189 193.301 101.433C193.988 102.095 194.551 102.725 195.2 103.245C196.41 104.212 197.201 105.3 196.65 106.938C196.629 107.004 196.648 107.083 196.64 107.155C196.382 110.16 196.127 113.165 195.866 116.171C195.595 119.295 195.318 122.42 195.047 125.546C194.786 128.552 194.532 131.557 194.272 134.562C194 137.712 193.724 140.861 193.45 144.009C193.236 146.461 193.014 148.913 192.814 151.365C192.775 151.844 192.569 152.128 192.164 152.392C179.645 160.53 167.133 168.678 154.634 176.846C154.064 177.219 153.599 177.245 152.969 177.034C144.295 174.136 135.611 171.269 126.937 168.376C126.468 168.22 126.22 168.285 125.911 168.679C123.895 171.242 121.842 173.773 119.816 176.325C118.543 177.929 117.295 179.552 116.035 181.165C115.987 181.165 115.938 181.165 115.89 181.165C115.787 181.006 115.697 180.835 115.578 180.688C112.43 176.746 109.265 172.815 106.141 168.852C105.727 168.326 105.395 168.22 104.765 168.43C96.1408 171.32 87.5046 174.176 78.88 177.069C78.2565 177.278 77.8128 177.187 77.285 176.842C64.7817 168.679 52.2711 160.529 39.7503 152.395C39.3095 152.107 39.1341 151.778 39.0935 151.293C38.8441 148.287 38.5831 145.281 38.3264 142.276C38.0669 139.247 37.8102 136.217 37.5478 133.188C37.2781 130.063 37.004 126.938 36.73 123.812C36.4603 120.735 36.1848 117.658 35.9165 114.581C35.6541 111.577 35.4047 108.57 35.1321 105.567C35.0871 105.071 35.2205 104.719 35.5874 104.363C36.5676 103.412 37.4985 102.41 38.4801 101.398C38.2467 101.281 38.019 101.156 37.7841 101.049C35.6149 100.06 33.4501 99.0592 31.2678 98.0993C30.8198 97.9021 30.6168 97.6237 30.4877 97.1713C28.1851 89.1441 25.8695 81.1198 23.5393 73.1013C23.4378 72.7533 23.2218 72.3951 22.9608 72.1457C19.5721 68.9079 16.1675 65.6874 12.7644 62.4655C8.81748 58.7303 4.86913 54.998 0.920776 51.2643C0.920776 51.1671 0.920776 51.0714 0.920776 50.9743C0.967176 50.8423 1.03677 50.7147 1.05707 50.5799C1.52832 47.6045 1.99233 44.6291 2.46068 41.6537C3.15378 37.25 3.85122 32.8478 4.54432 28.4442C5.24032 24.0173 5.93198 19.589 6.62943 15.1622C7.38198 10.3786 8.13887 5.59507 8.89432 0.811523C8.99148 0.811523 9.08717 0.811523 9.18432 0.811523C9.39312 0.908673 9.59467 1.03047 9.81362 1.10007C31.0822 7.90782 52.3523 14.7083 73.6165 21.5291C74.1182 21.6901 74.6257 21.9902 75.0027 22.3571C81.9033 29.0851 88.785 35.8334 95.6725 42.5773C95.787 42.689 95.9248 42.7789 96.0712 42.8949C102.712 36.8977 109.324 30.9266 115.978 24.9163C122.621 30.9266 129.239 36.9151 135.874 42.9195C136.052 42.7571 136.178 42.6498 136.297 42.5353C143.202 35.7754 150.103 29.0126 157.019 22.2657C157.382 21.9119 157.859 21.606 158.339 21.4523C177.8 15.2361 197.27 9.04172 216.734 2.83862C218.791 2.18322 220.835 1.48867 222.885 0.811523ZM51.3619 99.2578C51.0226 99.5014 50.8037 99.6189 50.6326 99.7856C48.1096 102.252 45.5851 104.714 43.0911 107.208C42.8446 107.455 42.6605 107.914 42.6866 108.257C42.9099 111.361 43.1825 114.463 43.4478 117.566C43.7161 120.692 43.9959 123.816 44.2671 126.941C44.5281 129.947 44.7833 132.953 45.0428 135.959C45.3633 139.661 45.6982 143.362 45.9969 147.067C46.039 147.595 46.1927 147.942 46.6538 148.24C57.275 155.138 67.889 162.049 78.4958 168.971C78.9264 169.252 79.2875 169.284 79.7645 169.125C88.0759 166.352 96.3873 163.578 104.716 160.858C105.869 160.481 106.79 160.052 106.932 158.715C106.938 158.657 107.013 158.606 107.113 158.482C110.062 162.169 112.99 165.832 115.954 169.536C118.933 165.808 121.862 162.147 124.867 158.389C125.052 158.931 125.142 159.363 125.347 159.732C125.502 160.01 125.766 160.326 126.049 160.422C134.767 163.341 143.496 166.23 152.22 169.141C152.685 169.296 153.023 169.228 153.419 168.967C155.956 167.293 158.508 165.64 161.054 163.983C169.122 158.732 177.191 153.485 185.248 148.217C185.53 148.033 185.802 147.672 185.867 147.35C186.006 146.668 186.002 145.959 186.061 145.262C186.318 142.231 186.574 139.202 186.835 136.172C187.107 133.023 187.384 129.873 187.658 126.724C187.919 123.718 188.18 120.713 188.439 117.708C188.712 114.558 188.999 111.409 189.234 108.257C189.26 107.913 189.074 107.453 188.828 107.207C186.334 104.713 183.809 102.248 181.283 99.7871C181.096 99.6058 180.821 99.5159 180.586 99.3825C180.96 99.078 181.134 98.9954 181.308 98.9156C185.735 96.8958 190.16 94.873 194.593 92.8662C195.022 92.6719 195.253 92.4182 195.389 91.9455C197.536 84.4243 199.703 76.9075 201.889 69.3965C202.017 68.9601 202.265 68.4975 202.591 68.1872C209.257 61.8391 215.938 55.507 222.636 49.1922C223.104 48.7514 223.249 48.3614 223.096 47.7451C222.916 47.023 222.858 46.2719 222.742 45.5339C222.044 41.1056 221.345 36.6787 220.647 32.2504C219.943 27.7989 219.241 23.3489 218.537 18.8974C218.09 16.0684 217.642 13.238 217.185 10.3511C216.911 10.4192 216.681 10.4613 216.459 10.5323C198.341 16.3033 180.223 22.0743 162.111 27.8613C161.697 27.9947 161.279 28.2513 160.966 28.5573C152.856 36.4714 144.759 44.3985 136.66 52.3228C136.475 52.504 136.281 52.6751 136.067 52.8752C129.357 46.8041 122.679 40.7619 115.971 34.6922C109.242 40.7692 102.543 46.8186 95.8378 52.8738C95.6652 52.7114 95.5405 52.5983 95.4202 52.4808C87.3031 44.5392 79.1903 36.5932 71.0602 28.666C70.7165 28.3311 70.2482 28.0628 69.7885 27.9164C52.187 22.2686 34.5811 16.6397 16.9752 11.0094C16.2502 10.7774 15.5208 10.5584 14.7407 10.3177C14.1346 14.1414 13.5401 17.8737 12.9514 21.6074C12.2525 26.0343 11.5638 30.464 10.8634 34.8909C10.1674 39.2945 9.45258 43.6953 8.78268 48.1018C8.73918 48.3875 8.92332 48.808 9.14372 49.0182C15.8645 55.4142 22.6055 61.7884 29.3248 68.1858C29.6511 68.4961 29.9019 68.9572 30.0295 69.3951C32.1219 76.5813 34.2244 83.766 36.2268 90.9783C36.5661 92.2007 37.149 92.8459 38.2887 93.3433C42.5938 95.221 46.851 97.2061 51.3619 99.2578Z" fill="url(#paint0_linear_22_678)"></path><path d="M134.081 113.146C134.743 112.498 134.93 111.868 134.841 110.982C134.611 108.677 134.464 106.363 134.295 104.051C134.034 100.489 133.787 96.9231 133.523 93.3604C133.256 89.7499 132.971 86.1394 132.702 82.5289C132.444 79.0634 132.198 75.5965 131.938 72.0077C130.599 72.0077 129.323 71.9787 128.049 72.0266C127.709 72.0396 127.298 72.2064 127.055 72.4427C125.577 73.8681 124.153 75.35 122.674 76.7753C122.255 77.1799 122.177 77.5598 122.306 78.1021C124.456 87.2168 126.597 96.3344 128.714 105.456C128.774 105.722 128.656 106.132 128.468 106.334C127.583 107.291 126.612 108.169 125.735 109.134C125.225 109.695 124.743 110.318 124.407 110.992C122.265 115.282 120.161 119.591 118.065 123.903C117.856 124.331 117.627 124.517 117.137 124.486C116.367 124.44 115.59 124.44 114.818 124.486C114.303 124.517 114.061 124.324 113.841 123.867C112.224 120.528 110.49 117.242 108.963 113.862C107.762 111.203 106.269 108.815 104.017 106.934C103.795 106.75 103.562 106.55 103.42 106.307C103.279 106.067 103.133 105.735 103.188 105.488C103.707 103.162 104.271 100.847 104.816 98.5268C106.421 91.6828 108.025 84.8373 109.627 77.9933C109.714 77.6207 109.775 77.3017 109.418 76.958C107.854 75.4486 106.334 73.8913 104.79 72.3601C104.644 72.2151 104.442 72.0295 104.264 72.0266C102.847 71.999 101.43 72.0106 99.989 72.0106C99.9658 72.289 99.9499 72.4775 99.9354 72.666C99.7266 75.5066 99.5192 78.3486 99.309 81.1891C99.0349 84.8721 98.758 88.5551 98.4839 92.2381C98.2722 95.0787 98.0663 97.9207 97.8532 100.761C97.5849 104.324 97.3196 107.887 97.0325 111.448C96.9933 111.932 97.1702 112.248 97.5008 112.577C101.133 116.189 104.745 119.82 108.382 123.428C108.759 123.802 108.898 124.173 108.896 124.695C108.882 132.644 108.891 140.594 108.876 148.543C108.875 149.085 109.021 149.506 109.363 149.919C110.317 151.072 111.238 152.254 112.173 153.421C113.422 154.98 114.673 156.538 115.954 158.135C118.268 155.238 120.55 152.397 122.802 149.531C122.982 149.301 123.002 148.903 123.002 148.582C123.012 140.681 123.015 132.78 123.001 124.879C122.999 124.379 123.148 124.026 123.501 123.677C127.03 120.172 130.526 116.629 134.081 113.146Z" fill="url(#paint1_linear_22_678)"></path><path d="M215.145 46.1571C214.826 43.9386 214.453 41.7288 214.104 39.5147C213.399 35.0632 212.7 30.6117 211.997 26.1602C211.701 24.2853 211.398 22.4105 211.089 20.4849C210.77 20.5646 210.512 20.6139 210.264 20.6937C195.402 25.4221 180.538 30.1506 165.68 34.895C165.309 35.0139 164.943 35.2575 164.662 35.5315C155.447 44.5273 146.266 53.5594 137.01 62.5131C135.668 63.8109 134.695 65.026 135.291 66.9719C135.346 67.1502 135.299 67.3576 135.315 67.549C135.389 68.4799 135.469 69.4108 135.546 70.3431C135.636 70.4055 135.727 70.4693 135.817 70.5316C135.953 70.2996 136.046 70.0227 136.232 69.8414C146.518 59.7625 156.809 49.6908 167.112 39.6307C167.424 39.3262 167.845 39.0768 168.259 38.9434C177.152 36.0927 186.052 33.2594 194.951 30.4275C199.056 29.1211 203.164 27.8233 207.311 26.5082C207.38 26.7996 207.444 27.0084 207.477 27.2216C208.365 32.8882 209.239 38.5562 210.154 44.2185C210.237 44.7274 210.116 45.0102 209.771 45.3364C203.819 50.9624 197.871 56.5942 191.942 62.2449C191.583 62.5885 191.285 63.0801 191.146 63.5586C189.174 70.3301 187.24 77.1117 185.265 83.8818C185.168 84.2138 184.84 84.5836 184.524 84.73C179.733 86.9384 174.929 89.1177 170.118 91.2811C169.718 91.4609 169.245 91.561 168.804 91.561C158.536 91.5769 148.267 91.5726 137.998 91.5726C137.716 91.5726 137.437 91.5726 137.112 91.5726C137.231 93.1748 137.344 94.677 137.455 96.1778C137.663 96.1923 137.759 96.2053 137.853 96.2053C148.606 96.2068 159.358 96.2082 170.111 96.1981C170.41 96.1981 170.729 96.1038 171.004 95.9791C176.798 93.3575 182.584 90.72 188.381 88.1056C188.828 87.9041 189.031 87.6286 189.161 87.1718C191.203 80.0451 193.26 72.9227 195.329 65.8046C195.425 65.4769 195.616 65.1333 195.861 64.8998C198.921 61.981 201.999 59.0839 205.07 56.1766C208.317 53.1041 211.564 50.0315 214.793 46.9416C214.993 46.7531 215.181 46.3993 215.145 46.1571Z" fill="url(#paint2_linear_22_678)"></path><path d="M61.6583 96.0706C72.3129 96.1257 82.9675 96.1634 93.6221 96.2055C93.8816 96.2069 94.1412 96.2055 94.4457 96.2055C94.5573 94.6409 94.6632 93.1532 94.7763 91.5727C94.4239 91.5727 94.1412 91.5727 93.8599 91.5727C83.591 91.5727 73.3221 91.5756 63.0546 91.5611C62.6385 91.5611 62.1919 91.4625 61.812 91.2914C57.0241 89.1353 52.2507 86.9472 47.4599 84.7983C46.964 84.5765 46.7233 84.2836 46.5797 83.7804C44.644 76.9988 42.6981 70.2215 40.7304 63.45C40.6101 63.0367 40.3491 62.6133 40.0373 62.3161C34.0706 56.635 28.0893 50.9698 22.1052 45.3076C21.8123 45.0306 21.6513 44.8001 21.7296 44.3245C22.3618 40.4965 22.9389 36.6598 23.5407 32.8274C23.8698 30.7336 24.2149 28.6442 24.5586 26.5112C24.8312 26.5939 25.0574 26.6606 25.2821 26.7316C38.0349 30.7873 50.7876 34.84 63.536 38.9116C63.9957 39.0581 64.4684 39.322 64.8106 39.6569C75.1157 49.7141 85.4049 59.7873 95.6985 69.8575C95.8754 70.0301 96.0566 70.1982 96.3495 70.4781C96.4887 68.5975 96.5975 66.8908 96.7497 65.1871C96.799 64.6332 96.6323 64.2533 96.2335 63.8632C86.6041 54.4629 76.9906 45.0466 67.3597 35.6477C67.0305 35.3258 66.5868 35.0619 66.1489 34.9212C52.0767 30.4088 37.9986 25.9153 23.9206 21.4203C22.9157 21.0998 21.908 20.791 20.8219 20.4517C20.4072 23.0356 20.0085 25.4832 19.6228 27.9337C18.6861 33.8845 17.7697 39.8396 16.804 45.7861C16.7097 46.3675 16.8257 46.7126 17.2375 47.1012C23.4595 52.9694 29.6713 58.8477 35.87 64.7405C36.1832 65.0377 36.4587 65.451 36.5791 65.8613C38.6584 72.9765 40.7058 80.1018 42.7894 87.2155C42.8866 87.549 43.2056 87.9259 43.5202 88.0695C49.1883 90.6737 54.8708 93.2489 60.5563 95.8154C60.8941 95.9691 61.2885 96.0677 61.6583 96.0706Z" fill="url(#paint3_linear_22_678)"></path><path d="M171.854 101.194C171.503 100.846 171.158 100.696 170.656 100.698C159.977 100.712 149.299 100.709 138.62 100.709C138.36 100.709 138.099 100.709 137.786 100.709C137.905 102.291 138.018 103.794 138.134 105.345C138.488 105.345 138.775 105.345 139.062 105.345C148.967 105.345 158.874 105.348 168.779 105.336C169.244 105.336 169.582 105.455 169.92 105.792C171.699 107.565 173.446 109.379 175.322 111.045C176.449 112.045 177.117 113.06 176.642 114.586C176.614 114.674 176.636 114.779 176.629 114.874C176.369 117.903 176.11 120.934 175.847 123.963C175.579 127.04 175.305 130.117 175.038 133.194C174.824 135.67 174.613 138.147 174.407 140.624C174.37 141.082 174.2 141.396 173.781 141.668C166.392 146.454 159.013 151.258 151.641 156.073C151.213 156.353 150.854 156.392 150.371 156.231C145.396 154.565 140.417 152.917 135.431 151.284C134.94 151.123 134.711 150.853 134.551 150.37C133.849 148.246 133.101 146.136 132.318 143.874C131.177 145.297 130.098 146.621 129.054 147.971C128.949 148.107 129.004 148.426 129.072 148.63C129.695 150.502 130.319 152.376 130.994 154.229C131.096 154.509 131.427 154.805 131.715 154.902C138.127 157.051 144.55 159.169 150.965 161.309C151.492 161.485 151.903 161.451 152.378 161.134C154.402 159.778 156.452 158.461 158.494 157.133C165.065 152.857 171.638 148.585 178.202 144.298C178.451 144.134 178.75 143.831 178.775 143.568C179.098 140.278 179.38 136.984 179.661 133.691C179.973 130.06 180.27 126.429 180.58 122.799C180.905 119 181.231 115.201 181.576 111.405C181.618 110.949 181.495 110.651 181.167 110.33C178.05 107.297 174.947 104.25 171.854 101.194Z" fill="url(#paint4_linear_22_678)"></path><path d="M99.583 143.881C98.8058 146.132 98.0547 148.26 97.3428 150.402C97.192 150.854 96.9759 151.115 96.509 151.268C91.5022 152.909 86.4982 154.562 81.503 156.238C81.0085 156.404 80.6562 156.325 80.2386 156.053C72.9074 151.266 65.5689 146.49 58.2218 141.73C57.7766 141.441 57.5316 141.132 57.4895 140.594C57.2474 137.564 56.9849 134.535 56.7225 131.506C56.4557 128.429 56.1787 125.353 55.9105 122.276C55.648 119.272 55.4015 116.265 55.1202 113.262C55.0695 112.721 55.2565 112.37 55.6321 112.008C57.752 109.962 59.8588 107.9 61.9497 105.823C62.3021 105.474 62.6501 105.332 63.1503 105.333C73.0553 105.348 82.9602 105.345 92.8637 105.345C93.1465 105.345 93.4307 105.345 93.7656 105.345C93.8816 103.786 93.9918 102.301 94.1107 100.709C93.8686 100.709 93.7033 100.709 93.5365 100.709C82.7137 100.709 71.8909 100.706 61.0681 100.727C60.7578 100.727 60.3765 100.914 60.1474 101.135C57.4576 103.74 54.8491 106.432 52.0897 108.96C50.7804 110.159 49.9147 111.33 50.4744 113.168C50.5629 113.46 50.5179 113.791 50.5455 114.104C50.8152 117.181 51.0921 120.257 51.3589 123.333C51.6214 126.363 51.8693 129.393 52.1332 132.422C52.4493 136.051 52.7872 139.679 53.083 143.312C53.1207 143.774 53.2657 144.042 53.6514 144.293C62.2905 149.9 70.9238 155.518 79.5484 161.145C79.9935 161.437 80.3821 161.492 80.8911 161.321C87.3291 159.173 93.7714 157.043 100.218 154.922C100.631 154.785 100.824 154.549 100.956 154.147C101.507 152.48 102.057 150.808 102.687 149.17C102.973 148.429 102.898 147.908 102.361 147.306C101.407 146.232 100.544 145.075 99.583 143.881Z" fill="url(#paint5_linear_22_678)"></path><path d="M122.551 70.9259C122.718 70.7592 122.873 70.5794 123.079 70.3575C121.638 69.0525 120.234 67.7693 118.809 66.5136C118.655 66.3787 118.362 66.3628 118.133 66.3613C116.684 66.3483 115.234 66.3483 113.786 66.3613C113.557 66.3628 113.261 66.3744 113.109 66.5092C111.682 67.7664 110.28 69.0511 108.836 70.359C109.039 70.5794 109.194 70.7577 109.36 70.9259C110.861 72.431 112.339 73.9608 113.879 75.4239C114.335 75.8574 114.398 76.2416 114.266 76.8042C112.131 85.8696 110.017 94.9394 107.868 104.002C107.741 104.543 107.855 104.859 108.234 105.189C110.045 106.766 111.354 108.672 112.313 110.889C113.407 113.425 114.705 115.874 115.951 118.435C116.099 118.15 116.212 117.939 116.316 117.725C117.417 115.474 118.584 113.254 119.595 110.965C120.592 108.704 121.842 106.663 123.771 105.084C124.11 104.807 124.162 104.518 124.056 104.074C121.903 94.9641 119.777 85.8464 117.628 76.7346C117.505 76.2112 117.576 75.8661 117.981 75.476C119.528 73.984 121.033 72.4484 122.551 70.9259Z" fill="url(#paint6_linear_22_678)"></path><path d="M105.174 67.7726C105.356 67.7697 105.554 67.5957 105.708 67.458C107.542 65.8151 109.362 64.1549 111.209 62.528C111.451 62.3148 111.831 62.1539 112.149 62.151C114.683 62.1205 117.219 62.1205 119.756 62.151C120.075 62.1553 120.456 62.3134 120.697 62.5251C122.544 64.152 124.362 65.8137 126.199 67.4536C126.366 67.603 126.598 67.7697 126.804 67.7741C128.37 67.8002 129.936 67.7886 131.619 67.7886C131.409 65.0278 131.161 62.3627 131.029 59.6918C130.986 58.8058 130.632 58.2635 130 57.7038C127.216 55.2403 124.477 52.7245 121.72 50.2305C119.808 48.5007 117.889 46.7752 115.959 45.0366C111.032 49.4794 106.136 53.8918 101.252 58.3157C101.082 58.4694 100.978 58.7565 100.952 58.9929C100.848 59.9281 100.781 60.8663 100.713 61.8044C100.569 63.7721 100.431 65.7412 100.286 67.7857C101.951 67.7871 103.562 67.7973 105.174 67.7726Z" fill="url(#paint7_linear_22_678)"></path><path d="M104.37 125.422C101.849 122.858 99.3134 120.309 96.657 117.632C96.6092 117.915 96.5874 118.005 96.5802 118.096C96.2467 122.523 95.9161 126.95 95.5782 131.375C95.5275 132.045 95.4869 132.633 95.9958 133.246C98.1534 135.844 100.236 138.505 102.348 141.143C103.049 142.016 103.753 142.886 104.548 143.87C104.589 143.622 104.615 143.535 104.615 143.45C104.618 137.654 104.62 131.858 104.609 126.063C104.609 125.847 104.517 125.573 104.37 125.422Z" fill="url(#paint8_linear_22_678)"></path><path d="M136.374 132.138C136.12 128.455 135.852 124.772 135.581 121.089C135.505 120.067 135.405 119.045 135.318 118.024C135.259 117.989 135.201 117.954 135.141 117.919C135.011 118.088 134.898 118.273 134.75 118.423C132.431 120.75 130.114 123.079 127.777 125.387C127.422 125.738 127.274 126.087 127.275 126.586C127.291 132.07 127.285 137.552 127.287 143.036C127.287 143.261 127.316 143.486 127.335 143.773C127.467 143.677 127.532 143.648 127.572 143.599C130.455 140.001 133.339 136.404 136.207 132.795C136.336 132.633 136.388 132.356 136.374 132.138Z" fill="url(#paint9_linear_22_678)"></path><defs><linearGradient id="paint0_linear_22_678" x1="32.2307" y1="-22.5271" x2="199.691" y2="144.933" gradientUnits="userSpaceOnUse"><stop stop-color="#DE4A8B"></stop><stop offset="0.4944" stop-color="#6650A1"></stop><stop offset="1" stop-color="#EE5592"></stop></linearGradient><linearGradient id="paint1_linear_22_678" x1="97.0248" y1="115.069" x2="134.861" y2="115.069" gradientUnits="userSpaceOnUse"><stop stop-color="#F595CE"></stop><stop offset="1" stop-color="#F5CBDF"></stop></linearGradient><linearGradient id="paint2_linear_22_678" x1="135.113" y1="58.3455" x2="215.15" y2="58.3455" gradientUnits="userSpaceOnUse"><stop stop-color="#F595CE"></stop><stop offset="1" stop-color="#F5CBDF"></stop></linearGradient><linearGradient id="paint3_linear_22_678" x1="16.7727" y1="58.3288" x2="96.7579" y2="58.3288" gradientUnits="userSpaceOnUse"><stop stop-color="#F595CE"></stop><stop offset="1" stop-color="#F5CBDF"></stop></linearGradient><linearGradient id="paint4_linear_22_678" x1="128.995" y1="131.055" x2="181.585" y2="131.055" gradientUnits="userSpaceOnUse"><stop stop-color="#F595CE"></stop><stop offset="1" stop-color="#F5CBDF"></stop></linearGradient><linearGradient id="paint5_linear_22_678" x1="50.3039" y1="131.061" x2="102.854" y2="131.061" gradientUnits="userSpaceOnUse"><stop stop-color="#F595CE"></stop><stop offset="1" stop-color="#F5CBDF"></stop></linearGradient><linearGradient id="paint6_linear_22_678" x1="107.816" y1="92.3928" x2="124.104" y2="92.3928" gradientUnits="userSpaceOnUse"><stop stop-color="#F595CE"></stop><stop offset="1" stop-color="#F5CBDF"></stop></linearGradient><linearGradient id="paint7_linear_22_678" x1="100.287" y1="56.4141" x2="131.619" y2="56.4141" gradientUnits="userSpaceOnUse"><stop stop-color="#F595CE"></stop><stop offset="1" stop-color="#F5CBDF"></stop></linearGradient><linearGradient id="paint8_linear_22_678" x1="95.549" y1="130.752" x2="104.618" y2="130.752" gradientUnits="userSpaceOnUse"><stop stop-color="#F595CE"></stop><stop offset="1" stop-color="#F5CBDF"></stop></linearGradient><linearGradient id="paint9_linear_22_678" x1="127.274" y1="130.847" x2="136.376" y2="130.847" gradientUnits="userSpaceOnUse"><stop stop-color="#F595CE"></stop><stop offset="1" stop-color="#F5CBDF"></stop></linearGradient></defs></svg>
