<svg width="275" height="178" viewBox="0 0 275 178" fill="none" xmlns="http://www.w3.org/2000/svg"><path d="M233.055 8.94865C216.404 14.2498 199.748 19.5394 183.098 24.845C182.728 24.9624 182.364 25.2089 182.083 25.483C177.064 30.3898 172.059 35.3097 167.05 40.2266C166.906 40.3673 166.751 40.4963 166.599 40.6311C166.596 40.2991 166.701 40.0453 166.848 39.8191C168.089 37.9225 169.32 36.0172 170.599 34.1467C170.947 33.6378 170.931 33.3347 170.504 32.8765C165.767 27.7957 161.053 22.6917 156.331 17.595C155.895 17.1237 155.447 16.6626 154.93 16.116C150.579 22.7048 146.281 29.2095 141.935 35.7925C140.701 34.6789 139.543 33.6334 138.384 32.588C137.296 31.6063 137.301 31.6121 136.215 32.6025C135.082 33.6349 133.938 34.6571 132.753 35.7243C128.415 29.1616 124.128 22.6729 119.786 16.1029C114.38 21.9392 109.057 27.6826 103.699 33.4653C105.258 35.8345 106.792 38.1676 108.327 40.5006C108.263 40.547 108.2 40.5934 108.136 40.6398C108.015 40.534 107.888 40.4354 107.773 40.3237C103.264 35.8969 98.7161 31.5092 94.2699 27.02C92.8899 25.6265 91.3857 24.7203 89.5115 24.1316C73.5717 19.1248 57.6565 14.0425 41.7398 8.96315C41.1849 8.78625 40.8107 8.8602 40.3772 9.2198C39.2818 10.1275 38.1519 10.9902 37.0349 11.8704C28.9111 18.2649 20.7858 24.6608 12.6621 31.0568C12.428 31.2409 12.2083 31.441 11.9468 31.6629C12.2358 31.9079 12.4323 32.0848 12.6375 32.2487C17.8265 36.3725 23.0285 40.4803 28.2016 44.623C31.3791 47.1677 34.6275 49.6414 37.6432 52.3703C42.2383 56.5275 46.6643 60.8702 51.141 65.1579C51.4661 65.4682 51.7117 65.9322 51.8389 66.3701C53.9934 73.8144 56.1277 81.2659 58.246 88.7204C58.4136 89.312 58.7171 89.6368 59.2778 89.8818C61.6114 90.9055 63.9205 91.9829 66.2383 93.0414C68.3769 94.0187 70.5141 94.9989 72.8969 96.0893C72.5241 96.3808 72.277 96.5403 72.0718 96.7418C69.6081 99.1561 67.1544 101.579 64.6864 103.989C64.3714 104.296 64.2168 104.582 64.2601 105.056C64.4956 107.601 64.6792 110.15 64.8916 112.698C65.0823 114.98 65.2875 117.262 65.4869 119.545C65.7138 122.139 65.9435 124.733 66.169 127.327C66.3799 129.754 66.5822 132.181 66.7946 134.607C67.0634 137.681 67.3553 140.755 67.5923 143.832C67.6356 144.399 67.8148 144.747 68.2902 145.057C78.8662 151.942 89.4349 158.838 99.995 165.746C100.424 166.027 100.78 166.052 101.255 165.892C109.564 163.111 117.873 160.33 126.2 157.603C127.271 157.252 128.168 156.901 128.321 155.636C128.331 155.554 128.399 155.48 128.489 155.312C131.435 159.005 134.328 162.63 137.29 166.343C140.289 162.588 143.219 158.915 146.221 155.154C146.39 155.603 146.547 155.884 146.598 156.183C146.713 156.875 147.147 157.147 147.774 157.353C156.324 160.171 164.868 163.005 173.404 165.865C173.979 166.058 174.371 165.975 174.852 165.659C180.146 162.182 185.454 158.726 190.758 155.265C195.982 151.858 201.21 148.455 206.424 145.03C206.711 144.841 207.045 144.49 207.078 144.184C207.283 142.34 207.402 140.485 207.556 138.635C207.754 136.28 207.954 133.926 208.162 131.571C208.435 128.472 208.721 125.375 208.99 122.275C209.205 119.8 209.397 117.323 209.608 114.849C209.884 111.606 210.156 108.362 210.461 105.121C210.51 104.599 210.334 104.273 209.98 103.929C207.493 101.505 205.022 99.0647 202.548 96.6273C202.369 96.4503 202.206 96.2561 202.002 96.0342C202.3 95.8834 202.508 95.7689 202.723 95.6702C206.944 93.7447 211.16 91.8074 215.394 89.9094C215.998 89.6382 216.322 89.2844 216.504 88.6392C218.616 81.1818 220.752 73.7317 222.908 66.2874C223.034 65.8524 223.317 65.4131 223.645 65.097C226.284 62.5522 228.945 60.0321 231.61 57.5135C234.01 55.2442 236.296 52.83 238.854 50.7536C246.525 44.5258 254.307 38.4315 262.043 32.2849C262.28 32.0964 262.507 31.8934 262.774 31.6672C262.565 31.4802 262.43 31.3468 262.283 31.2308C252.929 23.8648 243.573 16.5017 234.228 9.1241C233.832 8.80945 233.506 8.80655 233.055 8.94865Z" fill="#101111"></path><path d="M0.592041 31.6122C3.01242 29.7054 5.3591 27.8567 7.70577 26.0094C18.1589 17.7792 28.6135 9.55044 39.0565 1.30719C39.4972 0.959187 39.8527 0.873637 40.4018 1.04909C58.1724 6.71424 75.9445 12.375 93.7338 17.9793C95.2988 18.4723 96.6108 19.1509 97.7206 20.3689C98.9373 21.7043 100.285 22.9194 101.577 24.1838C101.762 24.3651 101.962 24.5333 102.202 24.7508C108.416 18.046 114.591 11.3847 120.83 4.65379C125.316 11.4398 129.748 18.1475 134.221 24.9161C135.322 23.9286 136.34 23.0166 137.419 22.0494C138.499 23.0166 139.55 23.9576 140.686 24.9755C145.167 18.1895 149.612 11.4615 154.11 4.64944C160.348 11.3803 166.523 18.0416 172.742 24.7508C172.973 24.5434 173.171 24.3767 173.356 24.1954C175.027 22.5584 176.684 20.9054 178.375 19.2886C178.708 18.9696 179.136 18.6854 179.571 18.5462C197.936 12.6897 216.307 6.85199 234.672 0.996889C235.124 0.853339 235.418 0.938886 235.767 1.21584C248.488 11.2426 261.214 21.2606 273.938 31.2816C274.064 31.3802 274.174 31.5005 274.341 31.6586C272.646 33.0085 270.993 34.328 269.336 35.6446C260.712 42.4973 252.048 49.2993 243.485 56.2288C240.943 58.2864 238.683 60.6934 236.3 62.9481C234.198 64.9375 232.095 66.9255 230.02 68.9439C229.694 69.2614 229.411 69.7008 229.285 70.1358C226.995 78.0426 224.726 85.9553 222.472 93.8723C222.32 94.403 222.07 94.7263 221.559 94.9525C219.426 95.8965 217.312 96.8796 215.192 97.8511C214.961 97.9569 214.738 98.0816 214.524 98.1904C215.559 99.2663 216.528 100.303 217.534 101.305C217.872 101.643 217.982 101.956 217.929 102.448C217.719 104.364 217.575 106.29 217.407 108.211C217.18 110.805 216.95 113.399 216.728 115.995C216.514 118.495 216.315 120.995 216.099 123.493C215.884 125.991 215.653 128.488 215.435 130.986C215.221 133.437 215.017 135.889 214.805 138.339C214.582 140.91 214.354 143.48 214.128 146.051C214.069 146.723 213.968 147.396 213.964 148.069C213.961 148.54 213.78 148.807 213.4 149.055C200.869 157.22 188.342 165.391 175.827 173.577C175.347 173.892 174.95 173.828 174.479 173.672C165.87 170.802 157.256 167.947 148.655 165.054C147.934 164.812 147.556 164.95 147.098 165.534C144.043 169.423 140.948 173.28 137.864 177.146C137.733 177.311 137.582 177.462 137.4 177.663C137.212 177.453 137.048 177.286 136.902 177.105C133.804 173.219 130.697 169.34 127.625 165.436C127.226 164.928 126.892 164.853 126.298 165.053C117.672 167.946 109.036 170.809 100.408 173.698C99.8736 173.876 99.4748 173.809 99.0052 173.503C86.5898 165.383 74.1657 157.275 61.7343 149.178C61.2531 148.865 61.0133 148.545 60.967 147.934C60.6708 144.087 60.324 140.245 59.9844 136.401C59.6174 132.245 59.2301 128.091 58.8689 123.935C58.603 120.884 58.3747 117.829 58.1103 114.778C57.7981 111.175 57.4658 107.573 57.1421 103.97C57.0886 103.37 56.9904 102.768 57.0034 102.169C57.0092 101.901 57.1797 101.583 57.3704 101.379C58.3559 100.325 59.3732 99.2982 60.4382 98.202C60.2127 98.0845 59.9931 97.9598 59.7633 97.8554C57.6218 96.8723 55.4861 95.8776 53.3316 94.925C52.8649 94.7176 52.6308 94.4305 52.495 93.9535C50.2393 86.0611 47.9794 78.1717 45.6905 70.288C45.5445 69.7863 45.2527 69.2614 44.8798 68.9033C40.5983 64.7954 36.3572 60.6412 31.9587 56.6638C29.3533 54.3076 26.4908 52.237 23.7366 50.0475C16.2284 44.0764 8.71583 38.1096 1.20761 32.14C1.02121 31.9935 0.846361 31.8311 0.592041 31.6122ZM73.0097 96.0893C72.6368 96.3808 72.3897 96.5403 72.1846 96.7418C69.7208 99.1561 67.2672 101.579 64.7992 103.989C64.4842 104.296 64.3295 104.582 64.3729 105.056C64.6084 107.601 64.7919 110.15 65.0043 112.698C65.1951 114.98 65.4003 117.262 65.5997 119.545C65.8266 122.139 66.0563 124.733 66.2817 127.327C66.4927 129.754 66.695 132.181 66.9074 134.607C67.1762 137.681 67.4681 140.755 67.7051 143.832C67.7484 144.399 67.9276 144.747 68.403 145.057C78.979 151.942 89.5477 158.838 100.108 165.746C100.537 166.027 100.892 166.052 101.368 165.892C109.677 163.111 117.985 160.33 126.313 157.603C127.384 157.252 128.281 156.901 128.434 155.636C128.444 155.554 128.512 155.48 128.602 155.312C131.548 159.005 134.441 162.63 137.403 166.343C140.402 162.588 143.332 158.915 146.333 155.154C146.502 155.603 146.66 155.884 146.71 156.183C146.826 156.875 147.26 157.147 147.887 157.353C156.437 160.171 164.981 163.005 173.517 165.865C174.092 166.058 174.483 165.975 174.965 165.659C180.259 162.182 185.566 158.726 190.871 155.265C196.095 151.858 201.323 148.455 206.536 145.03C206.824 144.841 207.158 144.49 207.191 144.184C207.396 142.34 207.515 140.485 207.669 138.635C207.867 136.28 208.067 133.926 208.275 131.571C208.548 128.472 208.834 125.375 209.103 122.276C209.318 119.801 209.51 117.325 209.721 114.851C209.997 111.607 210.269 108.364 210.574 105.123C210.623 104.601 210.446 104.275 210.092 103.931C207.606 101.507 205.135 99.0662 202.661 96.6287C202.482 96.4518 202.318 96.2575 202.115 96.0357C202.412 95.8849 202.62 95.7703 202.836 95.6717C207.057 93.7461 211.273 91.8089 215.507 89.9109C216.111 89.6397 216.435 89.2859 216.617 88.6407C218.729 81.1833 220.865 73.7332 223.021 66.2889C223.147 65.8539 223.43 65.4146 223.758 65.0985C226.396 62.5537 229.058 60.0336 231.723 57.515C234.123 55.2457 236.409 52.8315 238.966 50.7551C246.638 44.5273 254.419 38.433 262.156 32.2864C262.393 32.0979 262.62 31.8949 262.887 31.6687C262.677 31.4817 262.543 31.3483 262.396 31.2323C253.042 23.8663 243.686 16.5032 234.341 9.12559C233.939 8.80804 233.613 8.80514 233.163 8.94869C216.513 14.2499 199.856 19.5395 183.207 24.845C182.837 24.9625 182.473 25.209 182.191 25.483C177.172 30.3898 172.167 35.3097 167.159 40.2266C167.014 40.3673 166.859 40.4963 166.708 40.6312C166.705 40.2991 166.809 40.0454 166.956 39.8192C168.198 37.9226 169.429 36.0173 170.708 34.1468C171.056 33.6378 171.04 33.3348 170.612 32.8766C165.875 27.7958 161.162 22.6918 156.44 17.595C156.003 17.1238 155.555 16.6627 155.038 16.116C150.687 22.7048 146.39 29.2095 142.043 35.7925C140.809 34.6789 139.652 33.6335 138.493 32.588C137.405 31.6064 137.409 31.6122 136.324 32.6025C135.191 33.6349 134.046 34.6572 132.862 35.7244C128.524 29.1617 124.236 22.6729 119.894 16.103C114.487 21.9378 109.165 27.6812 103.805 33.4638C105.365 35.8331 106.899 38.1662 108.434 40.4992C108.37 40.5456 108.307 40.592 108.243 40.6384C108.122 40.5326 107.995 40.434 107.88 40.3223C103.371 35.8955 98.8231 31.5078 94.3769 27.0186C92.9969 25.6251 91.4927 24.7189 89.6185 24.1302C73.6801 19.1248 57.7649 14.0425 41.8482 8.96319C41.2934 8.78629 40.9191 8.86024 40.4856 9.21984C39.3903 10.1275 38.2603 10.9903 37.1433 11.8704C29.0195 18.2649 20.8943 24.6609 12.7705 31.0568C12.5364 31.241 12.3168 31.4411 12.0552 31.6629C12.3442 31.908 12.5407 32.0849 12.7459 32.2487C17.9349 36.3725 23.1369 40.4804 28.31 44.623C31.4876 47.1678 34.7359 49.6415 37.7517 52.3704C42.3468 56.5275 46.7728 60.8703 51.2494 65.1579C51.5745 65.4682 51.8202 65.9322 51.9473 66.3701C54.1018 73.8144 56.2361 81.266 58.3545 88.7204C58.5221 89.312 58.8255 89.6368 59.3862 89.8819C61.7184 90.9056 64.029 91.9829 66.3468 93.0414C68.4883 94.0187 70.6269 94.9975 73.0097 96.0893Z" fill="url(#paint0_linear_22_694)"></path><path d="M42.7182 17.6011C44.7629 18.2768 46.8018 18.9713 48.8537 19.6267C61.7908 23.7578 74.7322 27.8772 87.6649 32.0213C88.1432 32.175 88.6215 32.4781 88.9828 32.8319C97.1875 40.862 105.376 48.908 113.569 56.9512C113.754 57.1324 113.951 57.3021 114.26 57.5877C114.345 56.7003 114.426 55.9492 114.487 55.1952C114.749 51.9226 115.003 48.6499 115.26 45.3773C115.408 43.501 115.572 41.6247 115.686 39.7455C115.707 39.4178 115.585 39.0321 115.408 38.7493C114.629 37.5081 113.806 36.2959 112.977 35.0402C114.947 32.9131 116.89 30.8149 118.893 28.6501C120.51 31.0962 122.073 33.4612 123.674 35.8841C122.628 37.0209 121.568 38.1316 120.563 39.2931C120.302 39.5947 120.099 40.0384 120.066 40.4328C119.688 44.9307 119.342 49.4315 118.997 53.9308C118.656 58.3823 118.345 62.8382 117.984 67.2882C117.519 73.0346 117.009 78.778 116.536 84.5244C116.042 90.5143 115.569 96.5057 115.087 102.496C114.655 107.861 114.225 113.226 113.791 118.591C113.486 122.343 113.162 126.094 112.886 129.85C112.864 130.152 113.08 130.529 113.291 130.782C116.607 134.768 119.939 138.741 123.268 142.717C123.407 142.884 123.517 143.083 123.68 143.22C124.687 144.073 124.738 145.018 124.239 146.22C123.521 147.95 123.007 149.764 122.362 151.526C122.257 151.813 121.968 152.145 121.692 152.239C115.21 154.417 108.719 156.571 102.22 158.699C101.917 158.799 101.452 158.731 101.18 158.556C92.4999 152.921 83.8371 147.26 75.1628 141.617C74.7972 141.379 74.6686 141.121 74.6325 140.693C74.1817 135.403 73.699 130.115 73.241 124.826C72.8783 120.642 72.5372 116.456 72.1847 112.272C72.0792 111.022 71.9491 109.772 71.8653 108.52C71.8509 108.294 71.939 107.987 72.0936 107.833C75.3102 104.637 78.5354 101.45 81.7896 98.2921C82.0193 98.0688 82.489 98.0166 82.8459 98.0166C91.9234 98.0021 101.002 98.005 110.08 98.005C110.388 98.005 110.695 98.005 111.031 98.005C111.155 96.4782 111.27 95.0398 111.398 93.4709C111.028 93.4709 110.729 93.4709 110.431 93.4709C101.546 93.4709 92.6603 93.4752 83.775 93.4578C83.2909 93.4564 82.7693 93.3462 82.3271 93.1461C76.6353 90.5767 70.9579 87.9754 65.2674 85.4031C64.8123 85.1972 64.5536 84.9347 64.4149 84.4475C62.3977 77.3657 60.3689 70.2868 58.317 63.2152C58.1913 62.7816 57.9211 62.3336 57.5959 62.0233C52.2422 56.9077 46.9261 51.7529 41.4755 46.7432C39.0335 44.4971 36.3183 42.5483 33.7202 40.4748C30.5195 37.9185 27.3102 35.3737 24.1052 32.8217C23.9954 32.7347 23.8899 32.6405 23.7107 32.4897C24.8421 31.5936 25.9273 30.7323 27.0169 29.8739C32.031 25.9212 37.0466 21.9714 42.0579 18.0158C42.2009 17.9027 42.3078 17.7432 42.4321 17.604C42.526 17.6011 42.6214 17.6011 42.7182 17.6011ZM93.5779 76.5146C93.5461 76.5189 93.5143 76.5247 93.4825 76.5291C93.4189 76.3014 93.351 76.0738 93.2918 75.8447C89.8686 62.5351 86.4439 49.2256 83.0308 35.9131C82.921 35.4839 82.7014 35.2867 82.2968 35.1548C69.7542 31.0498 57.2145 26.9362 44.6776 22.8109C44.2398 22.6674 43.9349 22.7022 43.565 22.9864C41.6186 24.4871 39.6592 25.969 37.6838 27.4306C37.2937 27.7192 37.1362 28.0208 37.1391 28.5094C37.1622 31.1673 37.1824 33.8266 37.129 36.483C37.1131 37.2718 37.3703 37.7517 37.9743 38.2331C41.081 40.7141 44.2702 43.1095 47.2078 45.7818C52.1483 50.2754 56.9255 54.9516 61.7575 59.567C62.035 59.8323 62.2604 60.2151 62.3688 60.5849C64.3557 67.426 66.3237 74.2714 68.2817 81.1198C68.4132 81.578 68.6415 81.8346 69.0779 82.0318C73.8724 84.1981 78.6525 86.392 83.4455 88.5597C83.8025 88.7221 84.2258 88.8091 84.6189 88.8106C93.4088 88.8251 102.199 88.8207 110.989 88.8207C111.243 88.8207 111.497 88.8207 111.769 88.8207C111.942 86.6196 112.106 84.5273 112.273 82.4349C112.542 79.0912 112.817 75.7461 113.087 72.4024C113.305 69.7083 113.512 67.0127 113.754 64.3201C113.795 63.8691 113.711 63.5646 113.379 63.2413C105.928 55.9565 98.4909 48.6572 91.0506 41.3637C90.909 41.2245 90.7471 41.1056 90.4711 40.8736C91.5173 52.8636 92.5476 64.6898 93.5779 76.5146ZM81.856 140.413C82.1118 140.587 82.2867 140.712 82.4673 140.829C88.8759 145.014 95.2888 149.193 101.687 153.394C102.161 153.705 102.551 153.744 103.08 153.565C107.376 152.112 111.684 150.689 115.987 149.255C116.828 148.974 117.881 148.894 118.443 148.329C119.027 147.741 119.107 146.667 119.458 145.826C119.666 145.329 119.549 144.994 119.214 144.596C115.701 140.428 112.201 136.249 108.724 132.051C108.499 131.778 108.372 131.325 108.391 130.966C108.47 129.473 108.63 127.984 108.749 126.492C109.009 123.219 109.255 119.945 109.518 116.672C109.833 112.775 110.162 108.879 110.48 104.981C110.542 104.223 110.587 103.463 110.64 102.675C110.356 102.66 110.166 102.638 109.977 102.638C101.501 102.636 93.023 102.631 84.5466 102.655C84.1897 102.657 83.7533 102.858 83.4918 103.11C81.3185 105.201 79.1698 107.317 77.0413 109.451C76.8231 109.67 76.6598 110.076 76.6815 110.381C76.8361 112.595 77.05 114.806 77.2364 117.019C77.5904 121.204 77.9372 125.39 78.2927 129.573C78.3635 130.398 78.4618 131.222 78.5571 132.126C85.0105 128.796 91.3584 125.519 97.7077 122.242C97.7424 122.291 97.7771 122.34 97.8117 122.39C92.5115 128.378 87.2098 134.365 81.856 140.413Z" fill="url(#paint1_linear_22_694)"></path><path d="M232.44 17.601C233.49 18.4696 234.526 19.3584 235.595 20.2038C240.624 24.1768 245.661 28.1382 250.694 32.1054C250.826 32.2098 250.947 32.3258 251.229 32.5737C251.053 32.6665 250.892 32.7231 250.767 32.8231C245.258 37.1992 239.73 41.5521 234.259 45.9761C232.651 47.2768 231.195 48.7674 229.69 50.1942C225.507 54.1599 221.33 58.1329 217.166 62.1175C216.904 62.3684 216.68 62.7236 216.579 63.0702C214.532 70.1433 212.5 77.2207 210.489 84.304C210.33 84.8637 210.074 85.1928 209.539 85.435C203.914 87.9754 198.304 90.552 192.676 93.0866C192.15 93.3229 191.529 93.4506 190.951 93.452C182.113 93.4752 173.277 93.4679 164.439 93.4679C164.155 93.4679 163.871 93.4679 163.478 93.4679C163.6 95.005 163.714 96.4593 163.835 98.0021C164.175 98.0021 164.483 98.0021 164.79 98.0021C173.845 98.0021 182.898 98.0079 191.952 97.9891C192.582 97.9876 193.023 98.1805 193.465 98.6213C196.489 101.634 199.537 104.624 202.587 107.611C202.92 107.938 203.054 108.236 203.008 108.738C202.577 113.472 202.199 118.212 201.79 122.948C201.43 127.108 201.05 131.265 200.681 135.424C200.524 137.203 200.392 138.985 200.205 140.76C200.176 141.041 199.981 141.399 199.751 141.55C191.056 147.25 182.35 152.934 173.631 158.596C173.381 158.759 172.937 158.792 172.647 158.696C166.149 156.565 159.659 154.411 153.174 152.241C152.924 152.157 152.634 151.902 152.548 151.661C151.778 149.484 151.03 147.298 150.33 145.098C150.236 144.804 150.332 144.319 150.528 144.08C154.15 139.69 157.795 135.319 161.451 130.958C161.843 130.491 162.025 130.067 161.968 129.412C161.529 124.314 161.153 119.211 160.747 114.11C160.271 108.119 159.785 102.129 159.302 96.1389C158.87 90.7739 158.441 85.4089 158.005 80.0439C157.68 76.0506 157.339 72.0587 157.018 68.064C156.668 63.7125 156.334 59.3596 155.988 55.0081C155.6 50.1477 155.217 45.2873 154.8 40.4298C154.767 40.0354 154.563 39.5918 154.303 39.2902C153.309 38.1432 152.259 37.0456 151.192 35.8856C152.772 33.4931 154.346 31.1107 155.973 28.6471C157.977 30.812 159.921 32.9101 161.89 35.0373C161.062 36.293 160.24 37.5052 159.461 38.7464C159.284 39.0292 159.158 39.4163 159.182 39.7425C159.434 43.2095 159.721 46.6721 159.997 50.1376C160.161 52.1821 160.318 54.2281 160.48 56.274C160.51 56.6554 160.547 57.0367 160.596 57.5979C160.905 57.3137 161.109 57.1382 161.301 56.9497C169.493 48.9065 177.681 40.8591 185.886 32.829C186.247 32.4752 186.726 32.1721 187.204 32.0184C201.943 27.2972 216.688 22.5977 231.431 17.891C231.677 17.8127 231.911 17.6967 232.151 17.5981C232.246 17.601 232.343 17.601 232.44 17.601ZM163.087 88.7859C163.343 88.799 163.53 88.8178 163.718 88.8178C172.605 88.8193 181.49 88.8222 190.377 88.8091C190.722 88.8091 191.092 88.712 191.409 88.5684C196.222 86.3876 201.025 84.1836 205.841 82.0101C206.265 81.8187 206.459 81.5548 206.58 81.1343C208.541 74.2859 210.507 67.4405 212.493 60.5994C212.6 60.2296 212.822 59.8439 213.098 59.5786C216.126 56.6713 219.163 53.7757 222.219 50.8989C224.537 48.7181 226.829 46.5054 229.237 44.429C231.773 42.2424 234.435 40.2037 237.039 38.0968C237.389 37.8141 237.737 37.5806 237.73 37.0064C237.697 34.1311 237.727 31.2557 237.697 28.3804C237.694 28.0962 237.516 27.7177 237.293 27.5466C235.293 25.998 233.273 24.4755 231.233 22.9806C230.996 22.8066 230.558 22.7268 230.282 22.8167C217.689 26.9217 205.103 31.0469 192.523 35.1954C192.25 35.2853 191.938 35.6245 191.865 35.9044C188.949 47.1578 186.058 58.4171 183.164 69.6764C182.574 71.9674 181.983 74.2569 181.392 76.5479C181.357 76.5407 181.323 76.5334 181.288 76.5276C182.318 64.6942 183.347 52.8607 184.388 40.917C184.194 41.033 184.129 41.0562 184.083 41.1012C176.502 48.5296 168.923 55.9579 161.357 63.4007C161.187 63.5689 161.091 63.9112 161.11 64.1606C161.309 66.7836 161.549 69.4038 161.759 72.0268C162.207 77.5832 162.642 83.1425 163.087 88.7859ZM164.207 102.636C164.315 103.915 164.422 105.111 164.516 106.309C164.822 110.207 165.116 114.104 165.431 118.001C165.786 122.401 166.165 126.802 166.51 131.204C166.529 131.451 166.397 131.767 166.233 131.964C162.964 135.894 159.726 139.852 156.366 143.702C155.434 144.77 155.103 145.687 155.801 146.929C155.928 147.156 155.995 147.424 156.048 147.682C156.162 148.243 156.514 148.493 157.045 148.667C161.968 150.282 166.886 151.915 171.796 153.569C172.33 153.749 172.718 153.695 173.187 153.388C179.584 149.19 185.994 145.013 192.402 140.829C192.595 140.702 192.779 140.557 192.998 140.397C187.633 134.338 182.307 128.322 176.981 122.304C177.009 122.268 177.038 122.232 177.069 122.195C183.46 125.494 189.851 128.794 196.328 132.137C196.427 131.056 196.523 130.075 196.606 129.093C196.867 126.064 197.121 123.035 197.38 120.006C197.653 116.809 197.945 113.613 198.186 110.413C198.21 110.091 198.028 109.66 197.796 109.427C195.705 107.324 193.571 105.264 191.474 103.164C191.081 102.771 190.683 102.626 190.139 102.628C181.785 102.642 173.432 102.638 165.078 102.638C164.815 102.636 164.555 102.636 164.207 102.636Z" fill="url(#paint2_linear_22_694)"></path><path d="M137.338 155.461C136.162 153.99 135.022 152.564 133.883 151.136C132.831 149.816 131.759 148.511 130.745 147.163C130.493 146.829 130.305 146.352 130.304 145.941C130.278 138.015 130.275 130.089 130.301 122.164C130.304 121.472 130.09 121.011 129.612 120.535C126.034 116.984 122.485 113.403 118.915 109.844C118.558 109.489 118.443 109.154 118.488 108.639C118.74 105.729 118.939 102.815 119.157 99.9017C119.43 96.2433 119.705 92.5835 119.975 88.9252C120.188 86.0368 120.394 83.1469 120.604 80.2571C120.855 76.7901 121.105 73.3232 121.361 69.8562C121.375 69.6706 121.439 69.4879 121.491 69.2588C122.893 69.2588 124.262 69.2443 125.632 69.2748C125.836 69.2791 126.072 69.4517 126.231 69.6097C127.772 71.138 129.311 72.6692 130.818 74.2323C131.005 74.4252 131.116 74.8384 131.055 75.1023C128.946 84.2257 126.814 93.3433 124.671 102.458C124.54 103.016 124.515 103.476 125.051 103.837C125.267 103.982 125.416 104.224 125.619 104.392C127.798 106.203 129.186 108.549 130.355 111.101C131.908 114.494 133.626 117.809 135.253 121.169C135.468 121.614 135.713 121.829 136.231 121.794C137.211 121.729 138.39 122.053 139.12 121.611C139.818 121.186 140.062 119.997 140.485 119.134C142.277 115.48 144.05 111.818 145.861 108.174C146.144 107.606 146.539 107.071 146.971 106.602C147.887 105.61 148.853 104.665 149.82 103.721C150.124 103.424 150.223 103.173 150.116 102.718C147.959 93.5318 145.832 84.3389 143.675 75.1516C143.569 74.7007 143.66 74.444 143.965 74.1439C145.458 72.6692 146.922 71.1641 148.427 69.704C148.671 69.4676 149.077 69.2951 149.417 69.2777C150.522 69.224 151.632 69.2777 152.739 69.2487C153.214 69.2356 153.36 69.4183 153.392 69.8707C153.68 74.0859 153.975 78.2996 154.284 82.5133C154.644 87.3998 155.027 92.2863 155.392 97.1728C155.69 101.144 155.989 105.117 156.25 109.092C156.271 109.389 156.067 109.778 155.844 110.002C152.216 113.674 148.572 117.331 144.917 120.975C144.565 121.327 144.429 121.676 144.429 122.175C144.445 129.98 144.432 137.784 144.453 145.59C144.455 146.307 144.282 146.858 143.823 147.421C141.796 149.906 139.816 152.429 137.818 154.938C137.687 155.099 137.535 155.247 137.338 155.461Z" fill="url(#paint3_linear_22_694)"></path><path d="M137.393 115.728C137.207 115.383 137.075 115.161 136.963 114.931C135.756 112.44 134.499 109.97 133.369 107.444C132.638 105.809 131.743 104.315 130.35 103.199C129.339 102.388 129.201 101.562 129.508 100.292C131.625 91.5191 133.633 82.7205 135.694 73.935C135.807 73.455 135.749 73.1418 135.389 72.7894C133.668 71.106 131.976 69.3921 130.216 67.6318C131.704 66.2891 133.142 64.9812 134.597 63.6936C134.717 63.5878 134.955 63.5878 135.14 63.5863C136.633 63.5776 138.126 63.5762 139.618 63.5892C139.821 63.5907 140.077 63.6255 140.215 63.7487C141.639 65.0073 143.043 66.2891 144.532 67.6347C143.717 68.4424 142.932 69.2167 142.153 69.9939C141.215 70.9306 140.293 71.8861 139.337 72.804C138.999 73.1273 138.926 73.4173 139.036 73.8813C141.182 82.9931 143.302 92.1107 145.446 101.224C145.572 101.756 145.51 102.119 145.078 102.472C143.274 103.954 142.075 105.857 141.127 107.984C139.981 110.555 138.688 113.059 137.393 115.728Z" fill="url(#paint4_linear_22_694)"></path><path d="M152.92 65.0177C151.332 65.0177 149.794 65.038 148.257 64.9989C147.988 64.9916 147.687 64.777 147.469 64.5813C145.726 63.0225 143.99 61.4565 142.277 59.863C141.875 59.4903 141.475 59.3395 140.933 59.3453C138.526 59.3714 136.119 59.3366 133.711 59.3758C133.324 59.3816 132.86 59.5498 132.571 59.8035C130.814 61.3449 129.087 62.9239 127.373 64.5146C126.973 64.8858 126.569 65.0424 126.024 65.0293C124.632 64.996 123.238 65.0177 121.793 65.0177C121.781 64.7654 121.749 64.5566 121.764 64.3507C121.958 61.6305 122.151 58.9103 122.367 56.1916C122.384 55.977 122.508 55.7174 122.667 55.5739C127.535 51.1456 132.414 46.7303 137.327 42.2803C137.423 42.3368 137.532 42.3774 137.61 42.4485C142.396 46.7898 147.18 51.1311 151.956 55.4825C152.136 55.6478 152.327 55.903 152.346 56.1292C152.571 58.993 152.765 61.8582 152.964 64.7234C152.97 64.7901 152.946 64.8611 152.92 65.0177Z" fill="url(#paint5_linear_22_694)"></path><path d="M126.085 141.343C124.947 139.925 123.943 138.676 122.945 137.425C121.066 135.071 119.18 132.724 117.324 130.353C117.124 130.098 116.981 129.702 117.001 129.383C117.192 126.374 117.425 123.368 117.646 120.363C117.763 118.775 117.881 117.187 118 115.601C118.011 115.444 118.02 115.286 118.037 115.006C118.3 115.248 118.477 115.398 118.64 115.56C120.955 117.88 123.261 120.209 125.588 122.517C125.937 122.864 126.096 123.208 126.095 123.711C126.077 129.287 126.083 134.863 126.083 140.439C126.085 140.668 126.085 140.898 126.085 141.343Z" fill="url(#paint6_linear_22_694)"></path><path d="M156.69 115.118C156.902 117.868 157.104 120.412 157.292 122.958C157.451 125.099 157.606 127.243 157.732 129.387C157.749 129.671 157.666 130.029 157.496 130.246C154.639 133.857 151.761 137.451 148.887 141.048C148.859 141.083 148.81 141.103 148.693 141.184C148.674 140.942 148.647 140.748 148.645 140.554C148.642 134.973 148.641 129.393 148.653 123.812C148.653 123.545 148.702 123.197 148.869 123.026C151.415 120.423 153.985 117.845 156.69 115.118Z" fill="url(#paint7_linear_22_694)"></path><defs><linearGradient id="paint0_linear_22_694" x1="0.592619" y1="89.2978" x2="274.345" y2="89.2978" gradientUnits="userSpaceOnUse"><stop stop-color="#FEDC00"></stop><stop offset="0.4944" stop-color="#F47C20"></stop><stop offset="1" stop-color="#FECF09"></stop></linearGradient><linearGradient id="paint1_linear_22_694" x1="23.708" y1="88.1718" x2="124.546" y2="88.1718" gradientUnits="userSpaceOnUse"><stop stop-color="#FBF6B5"></stop><stop offset="1" stop-color="#FBAA19"></stop></linearGradient><linearGradient id="paint2_linear_22_694" x1="150.295" y1="88.1763" x2="251.23" y2="88.1763" gradientUnits="userSpaceOnUse"><stop stop-color="#FBF6B5"></stop><stop offset="1" stop-color="#FBAA19"></stop></linearGradient><linearGradient id="paint3_linear_22_694" x1="118.479" y1="112.354" x2="156.249" y2="112.354" gradientUnits="userSpaceOnUse"><stop stop-color="#FBF6B5"></stop><stop offset="1" stop-color="#FBAA19"></stop></linearGradient><linearGradient id="paint4_linear_22_694" x1="129.364" y1="89.6545" x2="145.5" y2="89.6545" gradientUnits="userSpaceOnUse"><stop stop-color="#FBF6B5"></stop><stop offset="1" stop-color="#FBAA19"></stop></linearGradient><linearGradient id="paint5_linear_22_694" x1="121.761" y1="53.6553" x2="152.966" y2="53.6553" gradientUnits="userSpaceOnUse"><stop stop-color="#FBF6B5"></stop><stop offset="1" stop-color="#FBAA19"></stop></linearGradient><linearGradient id="paint6_linear_22_694" x1="117" y1="128.174" x2="126.095" y2="128.174" gradientUnits="userSpaceOnUse"><stop stop-color="#FBF6B5"></stop><stop offset="1" stop-color="#FBAA19"></stop></linearGradient><linearGradient id="paint7_linear_22_694" x1="148.644" y1="128.15" x2="157.734" y2="128.15" gradientUnits="userSpaceOnUse"><stop stop-color="#FBF6B5"></stop><stop offset="1" stop-color="#FBAA19"></stop></linearGradient></defs></svg>
