<svg width="215" height="216" viewBox="0 0 215 216" fill="none" xmlns="http://www.w3.org/2000/svg" digit="3" colorBorderStart="#BEF9E5" colorBorderEnd="#01A3EC" colorRectStart="#2EBAEC" colorRectMiddle="#3F61AD" colorRectEnd="#4493D0"><path d="M31.2936 76.7641C42.29 65.7296 53.2214 54.7604 64.1615 43.7824C52.168 39.9356 40.0922 36.0626 27.9397 32.1636C27.788 33.0481 27.6377 33.8731 27.5091 34.6996C26.6233 40.3648 25.7462 46.0314 24.8561 51.6951C24.0165 57.0253 23.1568 62.354 22.3346 67.6871C22.2927 67.9583 22.4429 68.3599 22.6452 68.5542C25.3532 71.1657 28.0857 73.7496 30.8138 76.3393C31.0147 76.5321 31.2314 76.709 31.2936 76.7641Z" fill="#0F0F10"></path><path d="M143.933 179.306C146.161 180.056 148.394 180.793 150.616 181.561C151.067 181.718 151.402 181.664 151.804 181.402C161.524 175.035 171.248 168.675 180.991 162.346C181.818 161.809 182.256 161.28 182.322 160.213C182.548 156.579 182.929 152.954 183.247 149.325C183.524 146.152 183.8 142.981 184.071 139.808C184.114 139.307 184.118 138.801 184.144 138.221C170.512 151.915 156.975 165.51 143.426 179.121C143.58 179.177 143.755 179.246 143.933 179.306Z" fill="#0F0F10"></path><path d="M185.123 78.1789C188.534 74.9439 191.947 71.7104 195.344 68.461C195.496 68.316 195.581 67.997 195.55 67.7809C194.911 63.5643 194.253 59.3521 193.593 55.1398C192.895 50.6898 192.19 46.2412 191.489 41.7911C190.991 38.6287 190.494 35.4662 189.975 32.1675C177.052 36.2942 164.226 40.3904 151.438 44.4751C162.656 55.7285 173.849 66.9559 185.063 78.2064C185.036 78.2137 185.091 78.2093 185.123 78.1789Z" fill="#0F0F10"></path><path d="M30.6462 138.466C30.8413 140.75 31.0421 143.033 31.2358 145.319C31.6808 150.56 32.1158 155.804 32.584 161.044C32.6085 161.324 32.8441 161.672 33.0839 161.83C43.1079 168.4 53.1434 174.951 63.1833 181.496C63.3596 181.611 63.6428 181.705 63.8249 181.645C66.3565 180.825 68.8795 179.977 71.5282 179.093C57.8267 165.407 44.2191 151.815 30.6433 138.254C30.6448 138.247 30.6361 138.357 30.6462 138.466Z" fill="#0F0F10"></path><path d="M194.908 117.233C192.268 108.278 189.643 99.3201 187 90.3663C186.909 90.0589 186.722 89.7486 186.5 89.5181C185.595 88.5814 184.654 87.6795 183.737 86.7559C178.65 81.6432 173.571 76.5217 168.467 71.4264C168.2 71.1596 167.73 70.9654 167.352 70.9596C164.583 70.9204 161.813 70.9378 159.045 70.9378C158.787 70.9378 158.532 70.9378 158.204 70.9378C158.204 70.5753 158.204 70.3129 158.204 70.0504C158.204 67.3447 158.185 64.6376 158.218 61.9319C158.225 61.3185 158.026 60.9024 157.604 60.4804C151.109 53.9801 144.626 47.4666 138.143 40.9547C131.386 34.1687 124.628 27.3842 117.877 20.5924C117.693 20.4082 117.592 20.1429 117.433 19.8833C117.054 20.2458 116.862 20.4242 116.677 20.6098C113.646 23.6504 110.597 26.6737 107.6 29.7491C107.032 30.332 106.478 30.4205 105.746 30.3248C103.815 30.0725 101.878 29.8723 99.9427 29.6563C96.6697 29.2909 93.3954 28.94 90.1253 28.5499C89.6889 28.4977 89.4202 28.6007 89.1196 28.9023C74.4182 43.6749 59.7052 58.4359 45.011 73.2143C44.761 73.4652 44.5948 73.9161 44.5905 74.2771C44.5558 76.9582 44.5717 79.6407 44.5717 82.3232C44.5717 82.5813 44.5717 82.8394 44.5717 83.1657C44.2293 83.1657 43.9706 83.1657 43.7119 83.1657C41.0387 83.1657 38.3654 83.1497 35.6936 83.1859C35.3382 83.1903 34.8974 83.373 34.6446 83.6253C29.9266 88.3218 25.2362 93.046 20.524 97.7497C20.1657 98.1065 20.1064 98.4022 20.2509 98.8865C22.8794 107.669 25.4833 116.458 28.1059 125.242C28.1984 125.551 28.3675 125.872 28.5915 126.099C38.9319 136.5 49.2795 146.892 59.6445 157.268C59.88 157.503 60.3049 157.657 60.6445 157.661C63.3408 157.693 66.0386 157.678 68.735 157.678C68.9937 157.678 69.2523 157.678 69.5933 157.678C69.5933 158.01 69.5933 158.268 69.5933 158.527C69.5933 161.16 69.6107 163.794 69.5803 166.428C69.5731 167.035 69.7552 167.459 70.1814 167.886C79.2821 177.001 88.3697 186.13 97.4602 195.256C97.6451 195.442 97.8387 195.62 98.0439 195.818C98.2246 195.645 98.3821 195.501 98.5323 195.351C101.682 192.19 104.828 189.024 107.987 185.874C108.186 185.675 108.509 185.45 108.753 185.472C110.883 185.666 113.008 185.913 115.135 186.148C118.481 186.517 121.826 186.877 125.167 187.277C125.694 187.341 126.009 187.164 126.356 186.815C130.5 182.634 134.656 178.468 138.809 174.297C150.502 162.555 162.193 150.811 173.896 139.078C174.282 138.69 174.454 138.309 174.448 137.755C174.421 134.952 174.435 132.15 174.435 129.347C174.435 129.092 174.435 128.836 174.435 128.536C174.795 128.536 175.057 128.536 175.318 128.536C178.111 128.536 180.905 128.527 183.698 128.545C184.16 128.548 184.501 128.433 184.839 128.091C188.095 124.797 191.363 121.515 194.644 118.245C194.957 117.931 195.032 117.657 194.908 117.233Z" fill="#0F0F10"></path><path d="M107.535 215.09C107.487 215.09 107.438 215.09 107.39 215.09C107.348 215.033 107.314 214.969 107.264 214.92C97.2867 204.912 87.3047 194.91 77.34 184.889C76.9715 184.518 76.6753 184.563 76.2678 184.699C71.9241 186.155 67.5761 187.595 63.2353 189.061C62.7888 189.211 62.4565 189.197 62.0475 188.929C50.2722 181.216 38.4897 173.515 26.697 165.829C26.2289 165.524 26.0757 165.173 26.0439 164.651C25.9586 163.255 25.8329 161.86 25.7115 160.467C25.4442 157.39 25.1639 154.314 24.898 151.237C24.6336 148.185 24.3865 145.13 24.122 142.078C23.8085 138.472 23.4689 134.868 23.1828 131.261C23.1366 130.686 22.9574 130.28 22.5571 129.88C15.4159 122.732 8.28774 115.57 1.15377 108.413C0.987599 108.246 0.796856 108.103 0.617676 107.948C0.617676 107.9 0.617676 107.85 0.617676 107.803C0.726051 107.713 0.843096 107.631 0.942801 107.531C7.07249 101.382 13.1978 95.2296 19.329 89.0816C21.7465 86.6572 24.1712 84.2401 26.6956 81.7171C26.4095 81.4865 26.1523 81.3067 25.9269 81.0921C22.4444 77.7905 18.9721 74.4787 15.4766 71.1915C15.0951 70.8319 14.981 70.4868 15.0662 69.9938C15.3003 68.641 15.5055 67.2823 15.7194 65.9266C16.4188 61.4765 17.1167 57.025 17.8161 52.5735C18.5082 48.1699 19.1989 43.7677 19.8911 39.364C20.5948 34.8893 21.2985 30.4161 22.0066 25.9414C22.1467 25.0525 22.3013 24.1651 22.4516 23.2661C22.6294 23.3024 22.7002 23.3111 22.7681 23.3314C38.1414 28.2628 53.5162 33.1899 68.8838 38.1417C69.5384 38.3534 69.9416 38.2881 70.443 37.7821C82.7457 25.3962 95.0701 13.0291 107.39 0.65918C107.487 0.65918 107.582 0.65918 107.679 0.65918C107.78 0.78823 107.868 0.928879 107.983 1.04343C120.475 13.583 132.97 26.1197 145.45 38.6709C145.806 39.0276 146.087 39.0334 146.514 38.8971C162.299 33.841 178.087 28.7935 193.875 23.7475C194.386 23.5837 194.905 23.4372 195.459 23.2719C196.177 27.8844 196.875 32.4069 197.587 36.9266C198.431 42.2814 199.292 47.6319 200.135 52.9868C201.026 58.6505 201.89 64.3185 202.806 69.9779C202.899 70.5448 202.757 70.8508 202.37 71.2162C198.338 75.0239 194.326 78.8504 190.297 82.661C190.128 82.8205 189.852 82.8655 189.619 82.9655C189.973 83.3425 190.07 83.4484 190.171 83.5513C198.067 91.4799 205.962 99.4071 213.862 107.331C213.991 107.46 214.158 107.549 214.307 107.658C214.307 107.705 214.307 107.755 214.307 107.803C214.072 108.04 213.838 108.281 213.602 108.517C206.461 115.699 199.321 122.884 192.17 130.056C191.806 130.421 191.635 130.784 191.602 131.309C191.482 133.186 191.297 135.06 191.135 136.935C190.863 140.059 190.59 143.184 190.32 146.309C190.06 149.313 189.807 152.319 189.547 155.323C189.278 158.424 188.988 161.524 188.747 164.627C188.703 165.188 188.54 165.537 188.057 165.852C176.266 173.54 164.485 181.242 152.708 188.952C152.353 189.184 152.054 189.23 151.652 189.095C147.308 187.634 142.956 186.201 138.618 184.728C138.089 184.548 137.784 184.619 137.39 185.017C127.616 194.853 117.827 204.674 108.042 214.499C107.86 214.684 107.704 214.892 107.535 215.09ZM117.429 19.8862C117.05 20.2487 116.858 20.427 116.673 20.6126C113.641 23.6533 110.592 26.6765 107.595 29.752C107.027 30.3349 106.474 30.4233 105.741 30.3276C103.811 30.0753 101.873 29.8752 99.9383 29.6592C96.6654 29.2938 93.391 28.9429 90.121 28.5528C89.6846 28.5006 89.4158 28.6036 89.1153 28.9052C74.4124 43.6749 59.6994 58.4359 45.0052 73.2143C44.7552 73.4651 44.589 73.9161 44.5847 74.2771C44.55 76.9582 44.5659 79.6407 44.5659 82.3232C44.5659 82.5813 44.5659 82.8394 44.5659 83.1656C44.2234 83.1656 43.9648 83.1656 43.7061 83.1656C41.0329 83.1656 38.3596 83.1497 35.6878 83.1859C35.3324 83.1903 34.8916 83.373 34.6388 83.6253C29.9208 88.3218 25.2304 93.0459 20.5182 97.7497C20.1599 98.1064 20.1006 98.4022 20.2451 98.8865C22.8736 107.669 25.4775 116.458 28.1001 125.242C28.1926 125.551 28.3617 125.872 28.5857 126.099C38.9261 136.5 49.2737 146.892 59.6387 157.268C59.8742 157.503 60.2991 157.656 60.6386 157.661C63.335 157.693 66.0328 157.678 68.7292 157.678C68.9879 157.678 69.2465 157.678 69.5875 157.678C69.5875 158.01 69.5875 158.268 69.5875 158.526C69.5875 161.16 69.6049 163.794 69.5745 166.428C69.5673 167.035 69.7494 167.458 70.1756 167.886C79.2763 177.001 88.3639 186.13 97.4544 195.256C97.6393 195.442 97.833 195.62 98.0381 195.818C98.2188 195.645 98.3763 195.501 98.5266 195.351C101.677 192.19 104.822 189.024 107.981 185.873C108.181 185.675 108.503 185.45 108.747 185.472C110.877 185.666 113.003 185.913 115.13 186.148C118.475 186.517 121.82 186.877 125.161 187.277C125.688 187.341 126.003 187.164 126.35 186.815C130.494 182.634 134.65 178.468 138.803 174.297C150.496 162.555 162.187 150.811 173.891 139.078C174.276 138.69 174.448 138.309 174.443 137.755C174.415 134.952 174.43 132.15 174.43 129.347C174.43 129.091 174.43 128.836 174.43 128.536C174.789 128.536 175.051 128.536 175.312 128.536C178.106 128.536 180.899 128.527 183.692 128.545C184.154 128.548 184.495 128.433 184.834 128.091C188.089 124.797 191.358 121.515 194.638 118.245C194.953 117.931 195.028 117.658 194.904 117.235C192.264 108.28 189.638 99.3215 186.995 90.3678C186.904 90.0604 186.718 89.7501 186.495 89.5195C185.591 88.5828 184.65 87.6809 183.732 86.7573C178.646 81.6446 173.567 76.5232 168.463 71.4279C168.196 71.1611 167.726 70.9668 167.348 70.961C164.579 70.9218 161.809 70.9392 159.04 70.9392C158.783 70.9392 158.527 70.9392 158.199 70.9392C158.199 70.5767 158.199 70.3143 158.199 70.0518C158.199 67.3461 158.18 64.639 158.214 61.9333C158.221 61.3199 158.022 60.9038 157.6 60.4818C151.104 53.9815 144.622 47.4681 138.138 40.9561C131.382 34.1701 124.623 27.3856 117.872 20.5938C117.687 20.4096 117.586 20.1443 117.429 19.8862ZM189.968 32.1662C177.045 36.2929 164.219 40.3892 151.431 44.4738C162.648 55.7273 173.841 66.9546 185.056 78.2052C185.03 78.2153 185.085 78.2095 185.115 78.1805C188.527 74.9456 191.94 71.7121 195.337 68.4626C195.489 68.3176 195.574 67.9986 195.542 67.7826C194.904 63.566 194.246 59.3537 193.586 55.1415C192.888 50.6914 192.183 46.2428 191.482 41.7928C190.985 38.6274 190.488 35.465 189.968 32.1662ZM27.934 32.1633C27.7822 33.0478 27.632 33.8729 27.5034 34.6994C26.6176 40.3645 25.7404 46.0311 24.8503 51.6948C24.0108 57.025 23.151 62.3538 22.3288 67.6869C22.2869 67.958 22.4372 68.3597 22.6395 68.554C25.3474 71.1654 28.0799 73.7493 30.8081 76.339C31.0104 76.5304 31.2257 76.7073 31.2878 76.7624C42.2843 65.7279 53.2157 54.7587 64.1558 43.7807C52.1623 39.9353 40.0864 36.0609 27.934 32.1633ZM71.5238 179.093C57.8223 165.407 44.2148 151.814 30.639 138.254C30.639 138.247 30.6303 138.357 30.6404 138.467C30.8355 140.751 31.0364 143.035 31.23 145.32C31.6751 150.562 32.11 155.805 32.5782 161.045C32.6028 161.324 32.8383 161.673 33.0782 161.831C43.1021 168.401 53.1376 174.952 63.1775 181.497C63.3538 181.612 63.637 181.706 63.8191 181.647C66.3522 180.825 68.8751 179.976 71.5238 179.093ZM143.42 179.121C143.574 179.177 143.749 179.247 143.928 179.306C146.157 180.056 148.389 180.793 150.612 181.561C151.062 181.718 151.398 181.664 151.799 181.402C161.52 175.035 171.243 168.675 180.987 162.346C181.813 161.809 182.251 161.28 182.318 160.213C182.543 156.579 182.925 152.954 183.243 149.325C183.52 146.152 183.796 142.981 184.066 139.808C184.11 139.307 184.114 138.801 184.14 138.221C170.506 151.913 156.971 165.51 143.42 179.121Z" fill="url(#paint0_linear_22_660)"></path><path d="M149.797 102.221C149.636 102.363 149.467 102.498 149.315 102.649C144.311 107.67 139.313 112.699 134.295 117.707C133.91 118.09 133.812 118.448 133.854 118.976C134.185 123.213 134.477 127.451 134.789 131.69C135.02 134.843 135.279 137.996 135.478 141.152C135.503 141.531 135.329 142.002 135.089 142.305C126.022 153.733 116.937 165.144 107.854 176.558C107.764 176.67 107.665 176.775 107.51 176.951C107.131 176.489 106.766 176.057 106.415 175.615C97.5526 164.487 88.6904 153.36 79.8426 142.221C79.6403 141.966 79.4843 141.57 79.506 141.252C79.7964 137.134 80.1288 133.021 80.438 128.904C80.6938 125.51 80.9452 122.114 81.1547 118.715C81.1749 118.397 80.9553 117.984 80.7169 117.744C75.7649 112.738 70.7941 107.75 65.8218 102.764C65.6354 102.577 65.3999 102.44 65.1311 102.239C65.4158 101.934 65.5848 101.743 65.7655 101.562C71.6004 95.6992 77.4324 89.834 83.2789 83.9832C83.6473 83.6149 83.7976 83.2423 83.8337 82.7246C84.1271 78.5341 84.4594 74.3465 84.7701 70.1575C84.9811 67.3169 85.1877 64.4749 85.3727 61.6329C85.4059 61.1254 85.5244 60.7354 85.9247 60.3729C92.9676 53.9987 99.999 47.6143 107.019 41.214C107.428 40.8414 107.656 40.8994 108.023 41.2343C115.083 47.6607 122.154 54.0755 129.21 60.5063C129.41 60.689 129.559 61.0239 129.581 61.2994C130.016 66.7862 130.431 72.2745 130.842 77.7627C130.971 79.4723 131.059 81.1862 131.21 82.8928C131.238 83.2191 131.394 83.6033 131.621 83.831C137.614 89.8775 143.622 95.9066 149.629 101.939C149.68 101.989 149.74 102.03 149.797 102.075C149.797 102.124 149.797 102.172 149.797 102.221ZM144.204 102.091C143.768 101.779 143.479 101.628 143.261 101.409C138.115 96.2546 132.984 91.0868 127.825 85.9451C127.312 85.4332 127.062 84.9127 127.012 84.1935C126.531 77.3045 126.028 70.417 125.5 63.531C125.471 63.1482 125.249 62.6914 124.967 62.4319C121.58 59.3115 118.165 56.2215 114.757 53.1258C112.352 50.9421 109.945 48.7598 107.509 46.5515C106.98 47.03 106.48 47.4795 105.983 47.9304C100.664 52.7589 95.3403 57.5845 90.0357 62.4304C89.7857 62.6595 89.595 63.0568 89.5559 63.3961C89.4158 64.6431 89.3508 65.8974 89.2568 67.1502C88.8262 72.9299 88.4043 78.7096 87.9433 84.4864C87.9086 84.9156 87.6774 85.4173 87.374 85.7247C82.5607 90.5967 77.7243 95.4469 72.8835 100.293C72.2781 100.899 71.6235 101.457 70.9154 102.107C71.2608 102.398 71.4588 102.54 71.6278 102.711C76.1232 107.221 80.6114 111.735 85.114 116.236C85.4507 116.573 85.5822 116.897 85.5446 117.377C85.2383 121.228 84.9536 125.081 84.6675 128.933C84.4002 132.545 84.1271 136.156 83.8901 139.769C83.8684 140.108 83.9999 140.536 84.2109 140.801C90.8333 149.152 97.4745 157.487 104.114 165.823C105.223 167.213 106.335 168.599 107.483 170.032C107.673 169.822 107.822 169.674 107.952 169.51C115.567 159.946 123.184 150.383 130.782 140.806C131.006 140.523 131.142 140.071 131.123 139.707C131.035 138.019 130.874 136.335 130.747 134.651C130.319 128.945 129.9 123.238 129.461 117.533C129.419 116.99 129.538 116.597 129.942 116.194C134.417 111.733 138.869 107.25 143.333 102.777C143.519 102.588 143.749 102.445 144.204 102.091Z" fill="url(#paint1_linear_22_660)"></path><path d="M107.5 164.052C105.516 161.561 103.632 159.121 101.658 156.754C100.873 155.813 100.541 154.875 100.55 153.629C100.609 146.213 100.573 138.796 100.591 131.381C100.593 130.807 100.443 130.398 100.031 129.987C96.5281 126.5 93.0514 122.985 89.5545 119.494C89.1875 119.127 89.0372 118.792 89.082 118.238C89.4606 113.546 89.7886 108.851 90.134 104.156C90.462 99.6997 90.7958 95.2452 91.1238 90.7908C91.3796 87.3239 91.6411 83.8584 91.8694 80.39C91.9027 79.8912 92.0443 79.7317 92.5457 79.739C94.4227 79.7651 96.2998 79.7694 98.1769 79.7317C98.5208 79.7245 98.9311 79.5693 99.1898 79.3431C100.944 77.7974 102.655 76.2024 104.411 74.6596C104.684 74.4203 105.116 74.2609 105.48 74.2478C106.825 74.2 108.175 74.2 109.522 74.2478C109.889 74.2609 110.324 74.4145 110.597 74.6538C112.318 76.1632 114.011 77.7046 115.693 79.2605C116.072 79.6114 116.445 79.7723 116.969 79.7621C118.749 79.7288 120.531 79.7491 122.311 79.7491C122.545 79.7491 122.779 79.7491 123.06 79.7491C123.21 81.6443 123.365 83.4669 123.499 85.2924C123.869 90.3254 124.23 95.3583 124.596 100.391C124.914 104.773 125.226 109.157 125.548 113.538C125.665 115.128 125.782 116.717 125.941 118.302C125.999 118.876 125.869 119.286 125.447 119.707C121.907 123.226 118.385 126.762 114.885 130.321C114.621 130.589 114.43 131.06 114.43 131.439C114.404 139.193 114.413 146.948 114.401 154.702C114.401 155.019 114.352 155.407 114.17 155.639C111.984 158.428 109.772 161.196 107.5 164.052ZM107.234 113.479C110.234 109.89 113.176 106.37 116.115 102.855C116.04 102.748 116.008 102.679 115.958 102.634C114.195 101.031 112.436 99.4212 110.654 97.8393C110.467 97.6725 110.139 97.6029 109.874 97.6C108.12 97.5797 106.366 97.5841 104.61 97.5957C104.383 97.5971 104.09 97.6117 103.938 97.7465C102.071 99.4067 100.224 101.092 98.3271 102.81C101.302 106.371 104.243 109.895 107.234 113.479Z" fill="url(#paint2_linear_22_660)"></path><path d="M122.759 75.6064C121.144 75.6064 119.608 75.6223 118.073 75.589C117.849 75.5846 117.6 75.3787 117.413 75.2105C115.656 73.6329 113.919 72.0307 112.147 70.4676C111.89 70.2399 111.481 70.0761 111.138 70.0717C108.733 70.0384 106.325 70.0369 103.919 70.0732C103.554 70.079 103.117 70.2457 102.843 70.4879C101.106 72.0162 99.4195 73.6025 97.6783 75.1264C97.3719 75.3947 96.8879 75.5701 96.476 75.5875C95.1076 75.6441 93.7363 75.6093 92.2509 75.6093C92.3144 74.6914 92.3751 73.8142 92.4387 72.9355C92.5803 70.9838 92.7104 69.0321 92.8794 67.0833C92.904 66.8049 93.0471 66.467 93.2494 66.2814C97.934 62.0097 102.633 57.754 107.332 53.4982C107.383 53.4518 107.454 53.4272 107.552 53.3706C108.941 54.6292 110.332 55.8878 111.721 57.1508C115.039 60.1668 118.361 63.177 121.664 66.2104C121.902 66.4293 122.106 66.8005 122.132 67.1181C122.363 69.9079 122.551 72.702 122.759 75.6064Z" fill="url(#paint3_linear_22_660)"></path><path d="M88.6326 124.473C88.8724 124.682 89.0198 124.796 89.1513 124.927C91.4676 127.25 93.7869 129.568 96.0844 131.909C96.2939 132.122 96.4731 132.476 96.4746 132.766C96.4962 138.419 96.4905 144.074 96.489 149.728C96.489 149.799 96.4746 149.868 96.4558 150.042C96.2838 149.886 96.1408 149.786 96.0367 149.654C93.3144 146.242 90.5891 142.832 87.8884 139.401C87.6919 139.151 87.5907 138.743 87.6124 138.421C87.8681 134.613 88.1572 130.808 88.4375 127.002C88.4953 126.212 88.5603 125.421 88.6326 124.473Z" fill="url(#paint4_linear_22_660)"></path><path d="M126.388 124.673C126.691 128.768 126.877 132.727 127.321 136.656C127.525 138.463 126.99 139.73 125.86 141.054C123.561 143.747 121.423 146.574 119.216 149.347C119.041 149.567 118.856 149.779 118.573 150.116C118.553 149.722 118.533 149.49 118.533 149.258C118.531 143.874 118.525 138.492 118.546 133.108C118.547 132.788 118.678 132.382 118.895 132.16C121.253 129.748 123.642 127.366 126.023 124.978C126.101 124.897 126.195 124.831 126.388 124.673Z" fill="url(#paint5_linear_22_660)"></path><path d="M129.061 111.529C128.558 104.754 128.055 97.9873 127.555 91.2593C131.199 94.9089 134.832 98.547 138.424 102.146C135.364 105.214 132.238 108.345 129.061 111.529Z" fill="url(#paint6_linear_22_660)"></path><path d="M76.6246 102.033C80.1143 98.5369 83.734 94.9105 87.4621 91.1753C86.9549 98.0091 86.455 104.765 85.9622 111.409C82.8584 108.291 79.727 105.147 76.6246 102.033Z" fill="url(#paint7_linear_22_660)"></path><defs><linearGradient id="paint0_linear_22_660" x1="0.618629" y1="107.875" x2="214.307" y2="107.875" gradientUnits="userSpaceOnUse"><stop stop-color="#2EBAEC"></stop><stop offset="0.4944" stop-color="#3F61AD"></stop><stop offset="1" stop-color="#4493D0"></stop></linearGradient><linearGradient id="paint1_linear_22_660" x1="65.1298" y1="108.955" x2="149.796" y2="108.955" gradientUnits="userSpaceOnUse"><stop stop-color="#BEF9E5"></stop><stop offset="1" stop-color="#01A3EC"></stop></linearGradient><linearGradient id="paint2_linear_22_660" x1="89.0747" y1="119.131" x2="125.952" y2="119.131" gradientUnits="userSpaceOnUse"><stop stop-color="#BEF9E5"></stop><stop offset="1" stop-color="#01A3EC"></stop></linearGradient><linearGradient id="paint3_linear_22_660" x1="92.2493" y1="64.4942" x2="122.759" y2="64.4942" gradientUnits="userSpaceOnUse"><stop stop-color="#BEF9E5"></stop><stop offset="1" stop-color="#01A3EC"></stop></linearGradient><linearGradient id="paint4_linear_22_660" x1="87.6096" y1="137.259" x2="96.4912" y2="137.259" gradientUnits="userSpaceOnUse"><stop stop-color="#BEF9E5"></stop><stop offset="1" stop-color="#01A3EC"></stop></linearGradient><linearGradient id="paint5_linear_22_660" x1="118.529" y1="137.395" x2="127.364" y2="137.395" gradientUnits="userSpaceOnUse"><stop stop-color="#BEF9E5"></stop><stop offset="1" stop-color="#01A3EC"></stop></linearGradient><linearGradient id="paint6_linear_22_660" x1="127.556" y1="101.394" x2="138.426" y2="101.394" gradientUnits="userSpaceOnUse"><stop stop-color="#BEF9E5"></stop><stop offset="1" stop-color="#01A3EC"></stop></linearGradient><linearGradient id="paint7_linear_22_660" x1="76.6252" y1="101.292" x2="87.4627" y2="101.292" gradientUnits="userSpaceOnUse"><stop stop-color="#BEF9E5"></stop><stop offset="1" stop-color="#01A3EC"></stop></linearGradient></defs></svg>
